<svg width="360" height="40" viewBox="0 0 360 40" fill="none" xmlns="http://www.w3.org/2000/svg">
<rect width="360" height="40" fill="white"/>
<mask id="path-1-inside-1_99_703" fill="white">
<path d="M164 0H218V40H164V0Z"/>
</mask>
<path d="M218 38H164V42H218V38Z" fill="black" mask="url(#path-1-inside-1_99_703)"/>
<path d="M181.153 16.866H182.553V17.202C182.553 19.89 181.769 22.592 179.697 23.782L178.647 22.382C180.495 21.304 181.153 19.19 181.153 17.202V16.866ZM181.517 16.866H182.917V17.202C182.917 19.148 183.589 21.122 185.423 22.102L184.415 23.474C182.315 22.382 181.517 19.848 181.517 17.202V16.866ZM179.081 15.466H184.975V16.964H179.081V15.466ZM181.153 13.716H182.917V16.67H181.153V13.716ZM188.349 13.282H190.113V26.246H188.349V13.282ZM186.795 18.252H188.951V19.764H186.795V18.252ZM185.563 13.478H187.299V25.658H185.563V13.478ZM192.07 19.092H193.176C195.85 19.092 197.404 19.064 199.182 18.784L199.364 20.226C197.544 20.534 195.906 20.562 193.176 20.562H192.07V19.092ZM192.07 14.178H198.3V15.648H193.918V19.694H192.07V14.178ZM193.344 16.642H197.922V18.07H193.344V16.642ZM200.26 13.296H202.136V21.122H200.26V13.296ZM197.754 21.318C200.484 21.318 202.192 22.228 202.192 23.782C202.192 25.35 200.484 26.246 197.754 26.246C195.01 26.246 193.316 25.35 193.316 23.782C193.316 22.228 195.01 21.318 197.754 21.318ZM197.754 22.746C196.06 22.746 195.178 23.082 195.178 23.782C195.178 24.496 196.06 24.832 197.754 24.832C199.434 24.832 200.33 24.496 200.33 23.782C200.33 23.082 199.434 22.746 197.754 22.746Z" fill="black"/>
<path d="M236.57 13.996H238.348C238.348 17.23 236.906 19.358 233.448 20.618L232.636 19.33C235.52 18.322 236.57 16.782 236.57 14.668V13.996ZM233.252 13.996H237.116V15.466H233.252V13.996ZM236.626 16.208V17.44L232.944 17.846L232.72 16.404L236.626 16.208ZM241.932 13.282H243.696V19.946H241.932V13.282ZM240.35 15.956H242.422V17.44H240.35V15.956ZM239.104 13.52H240.84V19.862H239.104V13.52ZM234.89 20.422H243.696V23.88H236.752V25.476H234.904V22.564H241.876V21.836H234.89V20.422ZM234.904 24.692H244.116V26.106H234.904V24.692ZM254.025 13.296H255.901V22.844H254.025V13.296ZM247.221 24.538H256.209V26.022H247.221V24.538ZM247.221 22.046H249.083V25.294H247.221V22.046ZM245.793 19.708H246.927C249.629 19.708 251.211 19.638 252.975 19.302L253.171 20.786C251.351 21.136 249.699 21.206 246.927 21.206H245.793V19.708ZM245.779 14.136H251.743V18.28H247.627V20.128H245.793V16.908H249.909V15.62H245.779V14.136ZM258.207 21.626H259.257C261.553 21.626 263.051 21.57 264.731 21.262L264.913 22.76C263.177 23.082 261.623 23.152 259.257 23.152H258.207V21.626ZM258.207 14.43H264.073V15.914H260.069V22.2H258.207V14.43ZM266.621 13.282H268.483V26.288H266.621V13.282ZM263.443 17.748H267.405V19.26H263.443V17.748Z" fill="black" fill-opacity="0.3"/>
<path d="M298.664 23.222H310.396V24.748H298.664V23.222ZM299.56 14.402H309.43V15.886H299.56V14.402ZM299.616 19.764H309.388V21.262H299.616V19.764ZM301.324 15.774H303.186V19.904H301.324V15.774ZM305.818 15.774H307.666V19.904H305.818V15.774ZM311.135 23.306H322.867V24.818H311.135V23.306ZM316.049 20.856H317.911V23.922H316.049V20.856ZM312.451 14.122H321.551V18.434H314.327V20.618H312.479V16.978H319.703V15.592H312.451V14.122ZM312.479 19.876H321.845V21.374H312.479V19.876ZM332.523 13.282H334.399V19.918H332.523V13.282ZM325.621 20.436H334.399V23.936H327.483V25.504H325.649V22.606H332.551V21.864H325.621V20.436ZM325.649 24.72H334.749V26.162H325.649V24.72ZM324.151 14.066H331.137V15.494H324.151V14.066ZM323.997 19.694L323.815 18.224C326.083 18.224 329.107 18.182 331.613 17.874L331.711 19.204C329.149 19.624 326.237 19.68 323.997 19.694ZM325.173 14.71H326.951V18.952H325.173V14.71ZM328.309 14.71H330.115V18.952H328.309V14.71Z" fill="black" fill-opacity="0.3"/>
<path d="M95.8021 24.6932L95.1885 28.3751H92.8362L93.9271 21.8296H96.16L95.9555 23.0739H96.0237C96.2311 22.6563 96.5336 22.331 96.9314 22.0981C97.3319 21.8623 97.7737 21.7444 98.2566 21.7444C98.7197 21.7444 99.1046 21.8495 99.4115 22.0597C99.7183 22.27 99.9356 22.5597 100.063 22.929C100.191 23.2984 100.214 23.7217 100.132 24.1989L99.4328 28.3751H97.0805L97.6941 24.6932C97.7481 24.3694 97.7083 24.1151 97.5748 23.9305C97.4441 23.7458 97.2282 23.6535 96.9271 23.6535C96.7367 23.6535 96.562 23.6961 96.4029 23.7813C96.2467 23.8637 96.116 23.983 96.0109 24.1393C95.9086 24.2927 95.839 24.4773 95.8021 24.6932Z" fill="black"/>
<path d="M88.4556 28.4944C87.7454 28.4944 87.1601 28.3538 86.6999 28.0725C86.2425 27.7884 85.9215 27.3935 85.7368 26.8879C85.5522 26.3793 85.5152 25.7898 85.626 25.1194C85.7368 24.4489 85.9684 23.8609 86.3206 23.3552C86.6729 22.8467 87.126 22.4518 87.68 22.1705C88.234 21.8864 88.8675 21.7444 89.5806 21.7444C90.288 21.7444 90.8704 21.8864 91.3277 22.1705C91.788 22.4518 92.1104 22.8467 92.2951 23.3552C92.4826 23.8609 92.5209 24.4489 92.4101 25.1194C92.2993 25.7898 92.0664 26.3793 91.7113 26.8879C91.3562 27.3935 90.9016 27.7884 90.3476 28.0725C89.7965 28.3538 89.1658 28.4944 88.4556 28.4944ZM88.7454 26.7557C88.9499 26.7557 89.136 26.689 89.3036 26.5555C89.4741 26.4219 89.6189 26.2316 89.7383 25.9844C89.8604 25.7373 89.9499 25.4432 90.0067 25.1023C90.0635 24.7586 90.0721 24.4646 90.0323 24.2202C89.9925 23.9731 89.9101 23.7827 89.7851 23.6492C89.6601 23.5157 89.4954 23.4489 89.2908 23.4489C89.0863 23.4489 88.8988 23.5157 88.7283 23.6492C88.5579 23.7827 88.413 23.9731 88.2937 24.2202C88.1743 24.4646 88.0863 24.7586 88.0295 25.1023C87.9726 25.4432 87.9627 25.7373 87.9996 25.9844C88.0394 26.2316 88.1218 26.4219 88.2468 26.5555C88.3746 26.689 88.5408 26.7557 88.7454 26.7557Z" fill="black"/>
<path d="M81.7683 28.375L82.8592 21.8295H85.2115L84.1206 28.375H81.7683ZM84.1376 21.1477C83.8194 21.1477 83.5623 21.0426 83.3663 20.8324C83.1703 20.6193 83.0979 20.3665 83.149 20.0739C83.2001 19.7756 83.3564 19.5227 83.6177 19.3153C83.8791 19.1051 84.1689 19 84.4871 19C84.8081 19 85.0638 19.1051 85.2541 19.3153C85.4444 19.5227 85.5155 19.7756 85.4672 20.0739C85.4217 20.3665 85.2683 20.6193 85.0069 20.8324C84.7484 21.0426 84.4587 21.1477 84.1376 21.1477Z" fill="black"/>
<path d="M81.8994 21.8297L81.6096 23.5342H77.2971L77.5869 21.8297H81.8994ZM78.6778 20.2615H81.0301L80.0329 26.27C80.0187 26.3609 80.0216 26.4376 80.0414 26.5001C80.0613 26.5598 80.1011 26.6052 80.1608 26.6365C80.2233 26.6649 80.3056 26.6791 80.4079 26.6791C80.4761 26.6791 80.5599 26.6706 80.6593 26.6535C80.7588 26.6336 80.8341 26.6194 80.8852 26.6109L80.9534 28.2643C80.8341 28.2984 80.6735 28.3368 80.4718 28.3794C80.273 28.4248 80.0414 28.4547 79.7772 28.4689C79.2261 28.4944 78.7772 28.4362 78.4306 28.2941C78.0869 28.1521 77.8483 27.9305 77.7147 27.6294C77.5841 27.3254 77.5613 26.9461 77.6466 26.4916L78.6778 20.2615Z" fill="black"/>
<path d="M72.7641 28.4944C72.0539 28.4944 71.4687 28.3538 71.0084 28.0725C70.5482 27.7884 70.2258 27.3935 70.0411 26.8879C69.8564 26.3793 69.8209 25.7898 69.9346 25.1194C70.0425 24.4489 70.2726 23.8609 70.6249 23.3552C70.98 22.8467 71.4346 22.4518 71.9885 22.1705C72.5454 21.8864 73.1789 21.7444 73.8891 21.7444C74.5312 21.7444 75.0667 21.8609 75.4956 22.0938C75.9275 22.3239 76.2357 22.6506 76.4204 23.0739C76.6079 23.4944 76.6562 23.9887 76.5652 24.5569H74.3834C74.409 24.216 74.3536 23.9546 74.2172 23.7728C74.0837 23.591 73.8891 23.5001 73.6334 23.5001C73.4232 23.5001 73.23 23.5597 73.0539 23.679C72.8806 23.7955 72.7314 23.9731 72.6064 24.2117C72.4843 24.4475 72.3948 24.7444 72.338 25.1023C72.2812 25.4603 72.274 25.7586 72.3167 25.9972C72.3621 26.233 72.4502 26.4106 72.5809 26.5299C72.7144 26.6464 72.8834 26.7046 73.088 26.7046C73.2641 26.7046 73.426 26.6648 73.5738 26.5853C73.7243 26.5029 73.8536 26.3836 73.9616 26.2273C74.0723 26.0682 74.1562 25.8751 74.213 25.6478H76.3948C76.2868 26.2273 76.0695 26.7302 75.7428 27.1563C75.4161 27.5825 74.9999 27.912 74.4942 28.145C73.9885 28.3779 73.4118 28.4944 72.7641 28.4944Z" fill="black"/>
<path d="M65.4463 28.4944C64.7474 28.4944 64.1679 28.3609 63.7077 28.0938C63.2474 27.8239 62.9236 27.4376 62.7361 26.9347C62.5486 26.429 62.5145 25.8239 62.6338 25.1194C62.7474 24.4432 62.9818 23.8523 63.3369 23.3467C63.6949 22.841 64.1452 22.4475 64.6878 22.1663C65.2332 21.885 65.844 21.7444 66.5202 21.7444C67.0145 21.7444 67.4477 21.8211 67.8199 21.9745C68.1949 22.1279 68.5003 22.3509 68.7361 22.6435C68.9719 22.9361 69.131 23.2898 69.2134 23.7046C69.2986 24.1165 69.2986 24.5825 69.2134 25.1023L69.1281 25.6478H63.2815L63.4861 24.3523H67.1679C67.1963 24.1648 67.1778 24.0001 67.1125 23.858C67.05 23.7131 66.9492 23.6009 66.8099 23.5214C66.6736 23.439 66.5088 23.3978 66.3156 23.3978C66.1224 23.3978 65.9406 23.439 65.7702 23.5214C65.6026 23.6038 65.4591 23.7188 65.3398 23.8665C65.2233 24.0143 65.1452 24.1876 65.1054 24.3864L64.8497 25.7501C64.8156 25.9603 64.8284 26.1478 64.8881 26.3126C64.9477 26.4773 65.0514 26.6066 65.1992 26.7004C65.3469 26.7941 65.5372 26.841 65.7702 26.841C65.9293 26.841 66.0798 26.8197 66.2219 26.7771C66.3668 26.7316 66.4946 26.6663 66.6054 26.581C66.719 26.493 66.8099 26.3864 66.8781 26.2614H69.0259C68.8724 26.716 68.6295 27.1109 68.2972 27.4461C67.9676 27.7785 67.5614 28.037 67.0784 28.2217C66.5983 28.4035 66.0543 28.4944 65.4463 28.4944Z" fill="black"/>
<path d="M57.5521 24.6932L56.9385 28.3751H54.5862L55.6771 21.8296H57.91L57.7055 23.0739H57.7737C57.9811 22.6563 58.2836 22.331 58.6814 22.0981C59.0819 21.8623 59.5237 21.7444 60.0066 21.7444C60.4697 21.7444 60.8546 21.8495 61.1615 22.0597C61.4683 22.27 61.6856 22.5597 61.8135 22.929C61.9413 23.2984 61.964 23.7217 61.8816 24.1989L61.1828 28.3751H58.8305L59.4441 24.6932C59.4981 24.3694 59.4583 24.1151 59.3248 23.9305C59.1941 23.7458 58.9782 23.6535 58.6771 23.6535C58.4867 23.6535 58.312 23.6961 58.1529 23.7813C57.9967 23.8637 57.866 23.983 57.7609 24.1393C57.6586 24.2927 57.589 24.4773 57.5521 24.6932Z" fill="black"/>
<path d="M49.7943 24.6932L49.1806 28.3751H46.8284L47.9193 21.8296H50.1522L49.9477 23.0739H50.0159C50.2233 22.6563 50.5258 22.331 50.9235 22.0981C51.3241 21.8623 51.7659 21.7444 52.2488 21.7444C52.7119 21.7444 53.0968 21.8495 53.4037 22.0597C53.7105 22.27 53.9278 22.5597 54.0556 22.929C54.1835 23.2984 54.2062 23.7217 54.1238 24.1989L53.425 28.3751H51.0727L51.6863 24.6932C51.7403 24.3694 51.7005 24.1151 51.567 23.9305C51.4363 23.7458 51.2204 23.6535 50.9193 23.6535C50.7289 23.6535 50.5542 23.6961 50.3951 23.7813C50.2389 23.8637 50.1082 23.983 50.0031 24.1393C49.9008 24.2927 49.8312 24.4773 49.7943 24.6932Z" fill="black"/>
<path d="M42.4478 28.4944C41.7375 28.4944 41.1523 28.3538 40.6921 28.0725C40.2347 27.7884 39.9137 27.3935 39.729 26.8879C39.5444 26.3793 39.5074 25.7898 39.6182 25.1194C39.729 24.4489 39.9606 23.8609 40.3128 23.3552C40.6651 22.8467 41.1182 22.4518 41.6722 22.1705C42.2262 21.8864 42.8597 21.7444 43.5728 21.7444C44.2802 21.7444 44.8625 21.8864 45.3199 22.1705C45.7802 22.4518 46.1026 22.8467 46.2873 23.3552C46.4748 23.8609 46.5131 24.4489 46.4023 25.1194C46.2915 25.7898 46.0586 26.3793 45.7035 26.8879C45.3483 27.3935 44.8938 27.7884 44.3398 28.0725C43.7887 28.3538 43.158 28.4944 42.4478 28.4944ZM42.7375 26.7557C42.9421 26.7557 43.1282 26.689 43.2958 26.5555C43.4662 26.4219 43.6111 26.2316 43.7304 25.9844C43.8526 25.7373 43.9421 25.4432 43.9989 25.1023C44.0557 24.7586 44.0643 24.4646 44.0245 24.2202C43.9847 23.9731 43.9023 23.7827 43.7773 23.6492C43.6523 23.5157 43.4875 23.4489 43.283 23.4489C43.0785 23.4489 42.891 23.5157 42.7205 23.6492C42.55 23.7827 42.4052 23.9731 42.2858 24.2202C42.1665 24.4646 42.0785 24.7586 42.0216 25.1023C41.9648 25.4432 41.9549 25.7373 41.9918 25.9844C42.0316 26.2316 42.114 26.4219 42.239 26.5555C42.3668 26.689 42.533 26.7557 42.7375 26.7557Z" fill="black"/>
<path d="M35.1704 28.4944C34.4601 28.4944 33.8749 28.3538 33.4147 28.0725C32.9545 27.7884 32.632 27.3935 32.4473 26.8879C32.2627 26.3793 32.2272 25.7898 32.3408 25.1194C32.4488 24.4489 32.6789 23.8609 33.0312 23.3552C33.3863 22.8467 33.8408 22.4518 34.3948 22.1705C34.9516 21.8864 35.5851 21.7444 36.2954 21.7444C36.9374 21.7444 37.4729 21.8609 37.9019 22.0938C38.3337 22.3239 38.642 22.6506 38.8266 23.0739C39.0141 23.4944 39.0624 23.9887 38.9715 24.5569H36.7897C36.8152 24.216 36.7598 23.9546 36.6235 23.7728C36.49 23.591 36.2954 23.5001 36.0397 23.5001C35.8295 23.5001 35.6363 23.5597 35.4601 23.679C35.2868 23.7955 35.1377 23.9731 35.0127 24.2117C34.8905 24.4475 34.801 24.7444 34.7442 25.1023C34.6874 25.4603 34.6803 25.7586 34.7229 25.9972C34.7684 26.233 34.8564 26.4106 34.9871 26.5299C35.1206 26.6464 35.2897 26.7046 35.4942 26.7046C35.6704 26.7046 35.8323 26.6648 35.98 26.5853C36.1306 26.5029 36.2598 26.3836 36.3678 26.2273C36.4786 26.0682 36.5624 25.8751 36.6192 25.6478H38.801C38.6931 26.2273 38.4758 26.7302 38.1491 27.1563C37.8223 27.5825 37.4062 27.912 36.9005 28.145C36.3948 28.3779 35.8181 28.4944 35.1704 28.4944Z" fill="black"/>
<path d="M50.409 22.8296C50.1363 22.8296 49.882 22.8083 49.6462 22.7657C49.4104 22.7259 49.2045 22.6705 49.0283 22.5995L49.8209 20.929C50.0028 20.9972 50.1704 21.0412 50.3238 21.0611C50.48 21.081 50.6178 21.0696 50.7371 21.027C50.8564 20.9844 50.9545 20.9035 51.0312 20.7841L51.1079 20.6648L49.9403 13.8296H52.3096L52.6079 18.3637H52.676L54.5084 13.8296H57.0653L53.5028 20.9205C53.3209 21.2813 53.0937 21.6052 52.8209 21.8921C52.551 22.1819 52.2187 22.4106 51.8238 22.5782C51.4289 22.7458 50.9573 22.8296 50.409 22.8296Z" fill="#FF7575"/>
<path d="M49.628 11.6477L48.1792 20.375H45.8269L47.2758 11.6477H49.628Z" fill="#FF7575"/>
<path d="M42.2761 20.375L43.367 13.8295H45.7193L44.6284 20.375H42.2761ZM44.6454 13.1477C44.3273 13.1477 44.0702 13.0426 43.8741 12.8324C43.6781 12.6193 43.6057 12.3665 43.6568 12.0739C43.7079 11.7756 43.8642 11.5227 44.1256 11.3153C44.3869 11.1051 44.6767 11 44.9949 11C45.3159 11 45.5716 11.1051 45.7619 11.3153C45.9523 11.5227 46.0233 11.7756 45.975 12.0739C45.9295 12.3665 45.7761 12.6193 45.5148 12.8324C45.2562 13.0426 44.9665 13.1477 44.6454 13.1477Z" fill="#FF7575"/>
<path d="M31.0081 20.3751L32.099 13.8296H34.3319L34.1274 15.0739H34.1956C34.3973 14.6648 34.6828 14.341 35.0521 14.1023C35.4214 13.8637 35.8348 13.7444 36.2921 13.7444C36.7495 13.7444 37.1245 13.8665 37.4171 14.1109C37.7098 14.3523 37.8575 14.6734 37.8603 15.0739H37.9285C38.1046 14.6734 38.393 14.3523 38.7936 14.1109C39.1941 13.8665 39.6387 13.7444 40.1274 13.7444C40.7495 13.7444 41.2225 13.9461 41.5464 14.3495C41.8731 14.7529 41.9796 15.2898 41.866 15.9603L41.1331 20.3751H38.7808L39.4285 16.5569C39.4683 16.27 39.4285 16.0455 39.3092 15.8836C39.1899 15.7188 39.0081 15.6364 38.7637 15.6364C38.5223 15.6364 38.3177 15.7188 38.1501 15.8836C37.9853 16.0455 37.8831 16.27 37.8433 16.5569L37.1956 20.3751H34.9456L35.5933 16.5569C35.6331 16.27 35.5933 16.0455 35.474 15.8836C35.3546 15.7188 35.1728 15.6364 34.9285 15.6364C34.7694 15.6364 34.6245 15.6734 34.4939 15.7472C34.366 15.8211 34.2595 15.9276 34.1742 16.0668C34.0919 16.2032 34.0365 16.3665 34.0081 16.5569L33.3603 20.3751H31.0081Z" fill="#FF7575"/>
<path d="M25.7081 20.4773C25.2933 20.4773 24.9368 20.4092 24.6385 20.2728C24.343 20.1336 24.1271 19.9234 23.9908 19.6421C23.8572 19.358 23.8274 19.0001 23.9013 18.5682C23.9609 18.2103 24.0732 17.9049 24.2379 17.6521C24.4027 17.3992 24.6072 17.1918 24.8516 17.0299C25.0959 16.868 25.37 16.7444 25.674 16.6592C25.9808 16.5711 26.3047 16.5143 26.6456 16.4887C27.0149 16.4603 27.3146 16.4248 27.5447 16.3822C27.7749 16.3396 27.9467 16.2813 28.0604 16.2075C28.174 16.1336 28.2422 16.0342 28.2649 15.9092V15.8921C28.2905 15.7217 28.245 15.591 28.1286 15.5001C28.0149 15.4092 27.8558 15.3637 27.6513 15.3637C27.4297 15.3637 27.2379 15.412 27.076 15.5086C26.9169 15.6052 26.8075 15.7557 26.7479 15.9603H24.5831C24.674 15.5626 24.8601 15.1961 25.1413 14.8609C25.4254 14.5228 25.8018 14.2529 26.2706 14.0512C26.7422 13.8467 27.3047 13.7444 27.9581 13.7444C28.424 13.7444 28.8331 13.7998 29.1854 13.9106C29.5376 14.0185 29.8288 14.1705 30.0589 14.3665C30.2919 14.5597 30.4553 14.787 30.549 15.0484C30.6456 15.3069 30.6683 15.5881 30.6172 15.8921L29.8672 20.3751H27.6683L27.8217 19.4546H27.7706C27.6001 19.6989 27.4084 19.8964 27.1953 20.0469C26.9851 20.1975 26.755 20.3069 26.505 20.3751C26.2578 20.4432 25.9922 20.4773 25.7081 20.4773ZM26.7308 18.9944C26.907 18.9944 27.0803 18.9575 27.2507 18.8836C27.4212 18.8097 27.5675 18.7032 27.6896 18.564C27.8118 18.4248 27.8899 18.2557 27.924 18.0569L28.0092 17.5114C27.9467 17.537 27.8771 17.5611 27.8004 17.5839C27.7266 17.6038 27.6484 17.6236 27.5661 17.6435C27.4865 17.6634 27.4013 17.6819 27.3104 17.6989C27.2223 17.716 27.1314 17.733 27.0376 17.7501C26.8501 17.7785 26.6925 17.8254 26.5646 17.8907C26.4368 17.9532 26.3374 18.0313 26.2663 18.1251C26.1953 18.216 26.1513 18.3182 26.1342 18.4319C26.1087 18.6109 26.1499 18.7501 26.2578 18.8495C26.3686 18.9461 26.5263 18.9944 26.7308 18.9944Z" fill="#FF7575"/>
<path d="M17 20.375L18.4489 11.6477H24.5852L24.2614 13.5568H20.4943L20.2557 15.0568H23.6477L23.3239 16.9659H19.9318L19.3693 20.375H17Z" fill="#FF7575"/>
</svg>
