<svg width="360" height="336" viewBox="0 0 360 336" fill="none" xmlns="http://www.w3.org/2000/svg">
<g filter="url(#filter0_b_208_2449)">
<rect width="360" height="336" fill="#555555" fill-opacity="0.9" style="mix-blend-mode:luminosity"/>
<rect width="360" height="336" fill="#56585C" fill-opacity="0.87"/>
<rect width="360" height="336" fill="#939393" style="mix-blend-mode:color-dodge"/>
</g>
<path d="M21.9916 31V22.5781H23.3509V23.8438H23.4759C23.6895 23.3958 23.9968 23.0495 24.3978 22.8047C24.7989 22.5547 25.3093 22.4297 25.9291 22.4297C26.877 22.4297 27.6035 22.7005 28.1087 23.2422C28.6192 23.7786 28.8744 24.5469 28.8744 25.5469V31H27.515V25.875C27.515 25.1146 27.3535 24.5521 27.0306 24.1875C26.7129 23.8177 26.2181 23.6328 25.5462 23.6328C25.0983 23.6328 24.7103 23.7292 24.3822 23.9219C24.0541 24.1146 23.7989 24.388 23.6166 24.7422C23.4395 25.0964 23.3509 25.5208 23.3509 26.0156V31H21.9916ZM33.3378 31.1484C32.8066 31.1484 32.3274 31.0469 31.9003 30.8438C31.4784 30.6406 31.1425 30.3516 30.8925 29.9766C30.6477 29.6016 30.5253 29.1589 30.5253 28.6484V28.6328C30.5253 28.1328 30.6451 27.7057 30.8847 27.3516C31.1243 26.9922 31.4732 26.7109 31.9316 26.5078C32.3899 26.3047 32.9446 26.1849 33.5956 26.1484L36.6894 25.9609V27.0469L33.7597 27.2344C33.1191 27.2708 32.6503 27.4036 32.3534 27.6328C32.0618 27.862 31.9159 28.1849 31.9159 28.6016V28.6172C31.9159 29.0443 32.0774 29.3776 32.4003 29.6172C32.7232 29.8516 33.1295 29.9688 33.6191 29.9688C34.0826 29.9688 34.4941 29.8776 34.8534 29.6953C35.2128 29.5078 35.4941 29.2552 35.6972 28.9375C35.9055 28.6198 36.0097 28.2604 36.0097 27.8594V25.2344C36.0097 24.7135 35.8508 24.3177 35.5331 24.0469C35.2206 23.7708 34.7493 23.6328 34.1191 23.6328C33.6139 23.6328 33.1998 23.724 32.8769 23.9062C32.554 24.0833 32.3378 24.3359 32.2284 24.6641L32.2206 24.6875H30.8612L30.8691 24.6406C30.942 24.1979 31.1243 23.8125 31.4159 23.4844C31.7128 23.151 32.0956 22.8932 32.5644 22.7109C33.0331 22.5234 33.567 22.4297 34.1659 22.4297C34.8534 22.4297 35.4342 22.5417 35.9081 22.7656C36.3873 22.9896 36.7493 23.3125 36.9941 23.7344C37.2441 24.151 37.3691 24.651 37.3691 25.2344V31H36.0097V29.7578H35.8847C35.7076 30.0547 35.4915 30.3073 35.2362 30.5156C34.9862 30.724 34.7024 30.8828 34.3847 30.9922C34.067 31.0964 33.718 31.1484 33.3378 31.1484ZM39.5434 31V22.5781H40.9028V23.8594H41.0278C41.2153 23.4062 41.5018 23.0547 41.8872 22.8047C42.2778 22.5547 42.7492 22.4297 43.3012 22.4297C43.6815 22.4297 44.0226 22.4922 44.3247 22.6172C44.6268 22.7422 44.8872 22.9167 45.1059 23.1406C45.3247 23.3594 45.4992 23.6146 45.6294 23.9062H45.7544C45.9054 23.6094 46.1085 23.3516 46.3637 23.1328C46.619 22.9089 46.9132 22.737 47.2466 22.6172C47.5851 22.4922 47.9471 22.4297 48.3325 22.4297C48.9054 22.4297 49.3898 22.5365 49.7856 22.75C50.1867 22.9635 50.4914 23.276 50.6997 23.6875C50.908 24.0938 51.0122 24.5911 51.0122 25.1797V31H49.6528V25.4922C49.6528 25.0755 49.5877 24.7318 49.4575 24.4609C49.3325 24.1849 49.1398 23.9792 48.8794 23.8438C48.619 23.7031 48.2908 23.6328 47.895 23.6328C47.5044 23.6328 47.1632 23.7214 46.8716 23.8984C46.5799 24.0755 46.3533 24.3125 46.1919 24.6094C46.0304 24.901 45.9497 25.2266 45.9497 25.5859V31H44.5903V25.2812C44.5903 24.9479 44.5174 24.6589 44.3716 24.4141C44.2309 24.1641 44.0278 23.9714 43.7622 23.8359C43.5018 23.7005 43.1945 23.6328 42.8403 23.6328C42.4757 23.6328 42.145 23.7292 41.8481 23.9219C41.5565 24.1146 41.3247 24.375 41.1528 24.7031C40.9861 25.026 40.9028 25.3854 40.9028 25.7812V31H39.5434ZM56.5928 31.1484C55.7907 31.1484 55.1006 30.9714 54.5225 30.6172C53.9496 30.263 53.5069 29.763 53.1944 29.1172C52.8871 28.4661 52.7334 27.7005 52.7334 26.8203V26.8125C52.7334 25.9427 52.8871 25.1797 53.1944 24.5234C53.5069 23.8672 53.947 23.3542 54.5147 22.9844C55.0824 22.6146 55.7465 22.4297 56.5069 22.4297C57.2725 22.4297 57.9287 22.6068 58.4756 22.9609C59.0277 23.3151 59.4496 23.8099 59.7412 24.4453C60.0381 25.0755 60.1866 25.8099 60.1866 26.6484V27.1797H53.4366V26.0938H59.4912L58.8194 27.0859V26.5469C58.8194 25.8854 58.7204 25.3411 58.5225 24.9141C58.3246 24.487 58.0511 24.1693 57.7022 23.9609C57.3532 23.7474 56.9522 23.6406 56.4991 23.6406C56.0459 23.6406 55.6397 23.7526 55.2803 23.9766C54.9261 24.1953 54.6449 24.5208 54.4366 24.9531C54.2282 25.3854 54.1241 25.9167 54.1241 26.5469V27.0859C54.1241 27.6849 54.2256 28.1979 54.4287 28.625C54.6319 29.0469 54.9209 29.3724 55.2959 29.6016C55.6709 29.8255 56.1136 29.9375 56.6241 29.9375C57.0043 29.9375 57.335 29.8854 57.6162 29.7812C57.8975 29.6771 58.1293 29.5443 58.3116 29.3828C58.4939 29.2214 58.6215 29.0573 58.6944 28.8906L58.7256 28.8203H60.085L60.0694 28.8828C59.9965 29.1693 59.8662 29.4479 59.6787 29.7188C59.4965 29.9844 59.2595 30.2266 58.9678 30.4453C58.6761 30.6589 58.3298 30.8307 57.9287 30.9609C57.5329 31.0859 57.0876 31.1484 56.5928 31.1484ZM68.4234 32.8281C67.4182 32.8281 66.5094 32.6771 65.6969 32.375C64.8844 32.0729 64.1917 31.6354 63.6187 31.0625C63.0458 30.4948 62.6057 29.8099 62.2984 29.0078C61.9911 28.2057 61.8375 27.3073 61.8375 26.3125V26.2969C61.8375 25.3333 61.9911 24.4531 62.2984 23.6562C62.6109 22.8594 63.0536 22.1719 63.6266 21.5938C64.1995 21.0156 64.8792 20.5703 65.6656 20.2578C66.4573 19.9453 67.3323 19.7891 68.2906 19.7891C69.525 19.7891 70.6109 20.0339 71.5484 20.5234C72.4911 21.0078 73.2281 21.6823 73.7594 22.5469C74.2906 23.4062 74.5562 24.401 74.5562 25.5312V25.5469C74.5562 26.3906 74.4365 27.125 74.1969 27.75C73.9573 28.3698 73.6161 28.8516 73.1734 29.1953C72.7359 29.5339 72.2177 29.7031 71.6187 29.7031C71.1708 29.7031 70.788 29.5885 70.4703 29.3594C70.1578 29.125 69.9703 28.8177 69.9078 28.4375L69.9 28.3906H69.775C69.6083 28.7865 69.3557 29.0938 69.0172 29.3125C68.6786 29.526 68.2802 29.6328 67.8219 29.6328C67.2802 29.6328 66.8036 29.4948 66.3922 29.2188C65.9859 28.9375 65.6682 28.5495 65.4391 28.0547C65.2151 27.5599 65.1031 26.9818 65.1031 26.3203V26.3047C65.1031 25.6745 65.2177 25.1172 65.4469 24.6328C65.6812 24.1484 66.0016 23.7708 66.4078 23.5C66.8193 23.224 67.2906 23.0859 67.8219 23.0859C68.2333 23.0859 68.6031 23.1849 68.9312 23.3828C69.2594 23.5807 69.499 23.849 69.65 24.1875H69.775V23.2344H70.9547V27.8203C70.9547 28.0911 71.0302 28.3047 71.1812 28.4609C71.3375 28.612 71.5562 28.6875 71.8375 28.6875C72.1656 28.6875 72.4495 28.5573 72.6891 28.2969C72.9339 28.0365 73.1214 27.6693 73.2516 27.1953C73.387 26.7214 73.4547 26.1667 73.4547 25.5312V25.5156C73.4547 24.5781 73.2333 23.7526 72.7906 23.0391C72.3479 22.3255 71.7307 21.7708 70.9391 21.375C70.1474 20.974 69.2307 20.7734 68.1891 20.7734C67.4234 20.7734 66.7203 20.9115 66.0797 21.1875C65.4443 21.4583 64.8896 21.8438 64.4156 22.3438C63.9469 22.8438 63.5823 23.4323 63.3219 24.1094C63.0667 24.7865 62.9391 25.5312 62.9391 26.3438V26.3594C62.9391 27.4688 63.1656 28.4349 63.6187 29.2578C64.0719 30.0755 64.7099 30.7083 65.5328 31.1562C66.3557 31.6094 67.3245 31.8359 68.4391 31.8359C68.7984 31.8359 69.1448 31.8203 69.4781 31.7891C69.8167 31.7578 70.124 31.7135 70.4 31.6562C70.676 31.599 70.8948 31.5339 71.0562 31.4609V32.4453C70.7073 32.5651 70.3036 32.6589 69.8453 32.7266C69.3922 32.7943 68.9182 32.8281 68.4234 32.8281ZM68.0016 28.5312C68.538 28.5312 68.9651 28.3333 69.2828 27.9375C69.6005 27.5417 69.7594 27.013 69.7594 26.3516V26.3359C69.7594 25.6693 69.6005 25.1406 69.2828 24.75C68.9703 24.3594 68.5484 24.1641 68.0172 24.1641C67.6682 24.1641 67.3687 24.25 67.1187 24.4219C66.874 24.5938 66.6839 24.8438 66.5484 25.1719C66.4182 25.4948 66.3531 25.8828 66.3531 26.3359V26.3516C66.3531 26.7995 66.4182 27.1875 66.5484 27.5156C66.6839 27.8438 66.874 28.0964 67.1187 28.2734C67.3687 28.4453 67.663 28.5312 68.0016 28.5312ZM79.8009 31.1484C78.9989 31.1484 78.3087 30.9714 77.7306 30.6172C77.1577 30.263 76.715 29.763 76.4025 29.1172C76.0952 28.4661 75.9416 27.7005 75.9416 26.8203V26.8125C75.9416 25.9427 76.0952 25.1797 76.4025 24.5234C76.715 23.8672 77.1551 23.3542 77.7228 22.9844C78.2905 22.6146 78.9546 22.4297 79.715 22.4297C80.4806 22.4297 81.1369 22.6068 81.6837 22.9609C82.2358 23.3151 82.6577 23.8099 82.9494 24.4453C83.2462 25.0755 83.3947 25.8099 83.3947 26.6484V27.1797H76.6447V26.0938H82.6994L82.0275 27.0859V26.5469C82.0275 25.8854 81.9285 25.3411 81.7306 24.9141C81.5327 24.487 81.2593 24.1693 80.9103 23.9609C80.5614 23.7474 80.1603 23.6406 79.7072 23.6406C79.2541 23.6406 78.8478 23.7526 78.4884 23.9766C78.1343 24.1953 77.853 24.5208 77.6447 24.9531C77.4364 25.3854 77.3322 25.9167 77.3322 26.5469V27.0859C77.3322 27.6849 77.4337 28.1979 77.6369 28.625C77.84 29.0469 78.1291 29.3724 78.5041 29.6016C78.8791 29.8255 79.3218 29.9375 79.8322 29.9375C80.2124 29.9375 80.5431 29.8854 80.8244 29.7812C81.1056 29.6771 81.3374 29.5443 81.5197 29.3828C81.702 29.2214 81.8296 29.0573 81.9025 28.8906L81.9337 28.8203H83.2931L83.2775 28.8828C83.2046 29.1693 83.0744 29.4479 82.8869 29.7188C82.7046 29.9844 82.4676 30.2266 82.1759 30.4453C81.8843 30.6589 81.5379 30.8307 81.1369 30.9609C80.741 31.0859 80.2957 31.1484 79.8009 31.1484ZM85.1941 31V22.5781H86.5534V23.8594H86.6784C86.8659 23.4062 87.1524 23.0547 87.5378 22.8047C87.9284 22.5547 88.3998 22.4297 88.9519 22.4297C89.3321 22.4297 89.6732 22.4922 89.9753 22.6172C90.2774 22.7422 90.5378 22.9167 90.7566 23.1406C90.9753 23.3594 91.1498 23.6146 91.28 23.9062H91.405C91.556 23.6094 91.7592 23.3516 92.0144 23.1328C92.2696 22.9089 92.5639 22.737 92.8972 22.6172C93.2357 22.4922 93.5977 22.4297 93.9831 22.4297C94.556 22.4297 95.0404 22.5365 95.4362 22.75C95.8373 22.9635 96.142 23.276 96.3503 23.6875C96.5586 24.0938 96.6628 24.5911 96.6628 25.1797V31H95.3034V25.4922C95.3034 25.0755 95.2383 24.7318 95.1081 24.4609C94.9831 24.1849 94.7904 23.9792 94.53 23.8438C94.2696 23.7031 93.9415 23.6328 93.5456 23.6328C93.155 23.6328 92.8139 23.7214 92.5222 23.8984C92.2305 24.0755 92.004 24.3125 91.8425 24.6094C91.681 24.901 91.6003 25.2266 91.6003 25.5859V31H90.2409V25.2812C90.2409 24.9479 90.168 24.6589 90.0222 24.4141C89.8816 24.1641 89.6784 23.9714 89.4128 23.8359C89.1524 23.7005 88.8451 23.6328 88.4909 23.6328C88.1264 23.6328 87.7956 23.7292 87.4987 23.9219C87.2071 24.1146 86.9753 24.375 86.8034 24.7031C86.6368 25.026 86.5534 25.3854 86.5534 25.7812V31H85.1941ZM101.118 31.1484C100.587 31.1484 100.108 31.0469 99.6809 30.8438C99.2591 30.6406 98.9231 30.3516 98.6731 29.9766C98.4283 29.6016 98.3059 29.1589 98.3059 28.6484V28.6328C98.3059 28.1328 98.4257 27.7057 98.6653 27.3516C98.9049 26.9922 99.2539 26.7109 99.7122 26.5078C100.171 26.3047 100.725 26.1849 101.376 26.1484L104.47 25.9609V27.0469L101.54 27.2344C100.9 27.2708 100.431 27.4036 100.134 27.6328C99.8424 27.862 99.6966 28.1849 99.6966 28.6016V28.6172C99.6966 29.0443 99.858 29.3776 100.181 29.6172C100.504 29.8516 100.91 29.9688 101.4 29.9688C101.863 29.9688 102.275 29.8776 102.634 29.6953C102.993 29.5078 103.275 29.2552 103.478 28.9375C103.686 28.6198 103.79 28.2604 103.79 27.8594V25.2344C103.79 24.7135 103.631 24.3177 103.314 24.0469C103.001 23.7708 102.53 23.6328 101.9 23.6328C101.394 23.6328 100.98 23.724 100.658 23.9062C100.335 24.0833 100.118 24.3359 100.009 24.6641L100.001 24.6875H98.6419L98.6497 24.6406C98.7226 24.1979 98.9049 23.8125 99.1966 23.4844C99.4934 23.151 99.8763 22.8932 100.345 22.7109C100.814 22.5234 101.348 22.4297 101.947 22.4297C102.634 22.4297 103.215 22.5417 103.689 22.7656C104.168 22.9896 104.53 23.3125 104.775 23.7344C105.025 24.151 105.15 24.651 105.15 25.2344V31H103.79V29.7578H103.665C103.488 30.0547 103.272 30.3073 103.017 30.5156C102.767 30.724 102.483 30.8828 102.165 30.9922C101.848 31.0964 101.499 31.1484 101.118 31.1484ZM107.355 31V22.5781H108.715V31H107.355ZM108.043 20.9531C107.788 20.9531 107.566 20.862 107.379 20.6797C107.196 20.4922 107.105 20.2708 107.105 20.0156C107.105 19.7552 107.196 19.5339 107.379 19.3516C107.566 19.1693 107.788 19.0781 108.043 19.0781C108.303 19.0781 108.525 19.1693 108.707 19.3516C108.889 19.5339 108.98 19.7552 108.98 20.0156C108.98 20.2708 108.889 20.4922 108.707 20.6797C108.525 20.862 108.303 20.9531 108.043 20.9531ZM111.045 31V19.2344H112.405V31H111.045ZM115.813 31.0781C115.537 31.0781 115.298 30.9792 115.095 30.7812C114.897 30.5781 114.798 30.3385 114.798 30.0625C114.798 29.7812 114.897 29.5417 115.095 29.3438C115.298 29.1458 115.537 29.0469 115.813 29.0469C116.095 29.0469 116.334 29.1458 116.532 29.3438C116.73 29.5417 116.829 29.7812 116.829 30.0625C116.829 30.3385 116.73 30.5781 116.532 30.7812C116.334 30.9792 116.095 31.0781 115.813 31.0781ZM122.277 31.1484C121.49 31.1484 120.808 30.9688 120.23 30.6094C119.652 30.25 119.204 29.7422 118.886 29.0859C118.569 28.4297 118.41 27.6562 118.41 26.7656V26.75C118.41 25.875 118.566 25.1146 118.878 24.4688C119.196 23.8229 119.644 23.3229 120.222 22.9688C120.8 22.6094 121.483 22.4297 122.269 22.4297C122.951 22.4297 123.54 22.5495 124.035 22.7891C124.529 23.0286 124.925 23.3516 125.222 23.7578C125.519 24.1589 125.709 24.6094 125.792 25.1094L125.8 25.1562H124.449L124.441 25.1328C124.337 24.7161 124.1 24.362 123.73 24.0703C123.36 23.7786 122.873 23.6328 122.269 23.6328C121.764 23.6328 121.326 23.7604 120.957 24.0156C120.587 24.2708 120.3 24.6328 120.097 25.1016C119.899 25.5651 119.8 26.1146 119.8 26.75V26.7656C119.8 27.4115 119.902 27.974 120.105 28.4531C120.308 28.9271 120.595 29.2943 120.964 29.5547C121.334 29.8151 121.769 29.9453 122.269 29.9453C122.837 29.9453 123.3 29.8229 123.66 29.5781C124.019 29.3333 124.277 28.9766 124.433 28.5078L124.449 28.4609L125.792 28.4531L125.777 28.5391C125.662 29.0443 125.459 29.4948 125.167 29.8906C124.876 30.2812 124.49 30.5885 124.011 30.8125C123.532 31.0365 122.954 31.1484 122.277 31.1484ZM130.936 31.1484C130.139 31.1484 129.449 30.974 128.865 30.625C128.287 30.2708 127.839 29.7682 127.522 29.1172C127.209 28.4661 127.053 27.6927 127.053 26.7969V26.7812C127.053 25.8802 127.209 25.1042 127.522 24.4531C127.839 23.8021 128.287 23.3021 128.865 22.9531C129.449 22.6042 130.139 22.4297 130.936 22.4297C131.738 22.4297 132.428 22.6042 133.006 22.9531C133.584 23.3021 134.029 23.8021 134.342 24.4531C134.66 25.1042 134.818 25.8802 134.818 26.7812V26.7969C134.818 27.6927 134.66 28.4661 134.342 29.1172C134.029 29.7682 133.584 30.2708 133.006 30.625C132.428 30.974 131.738 31.1484 130.936 31.1484ZM130.936 29.9453C131.467 29.9453 131.917 29.8203 132.287 29.5703C132.657 29.3203 132.938 28.9609 133.131 28.4922C133.329 28.0234 133.428 27.4583 133.428 26.7969V26.7812C133.428 26.1146 133.329 25.5469 133.131 25.0781C132.938 24.6094 132.657 24.2526 132.287 24.0078C131.917 23.7578 131.467 23.6328 130.936 23.6328C130.404 23.6328 129.954 23.7578 129.584 24.0078C129.214 24.2526 128.93 24.6094 128.732 25.0781C128.54 25.5469 128.443 26.1146 128.443 26.7812V26.7969C128.443 27.4583 128.54 28.0234 128.732 28.4922C128.93 28.9609 129.214 29.3203 129.584 29.5703C129.954 29.8203 130.404 29.9453 130.936 29.9453ZM136.618 31V22.5781H137.977V23.8594H138.102C138.29 23.4062 138.576 23.0547 138.962 22.8047C139.352 22.5547 139.824 22.4297 140.376 22.4297C140.756 22.4297 141.097 22.4922 141.399 22.6172C141.701 22.7422 141.962 22.9167 142.18 23.1406C142.399 23.3594 142.574 23.6146 142.704 23.9062H142.829C142.98 23.6094 143.183 23.3516 143.438 23.1328C143.693 22.9089 143.988 22.737 144.321 22.6172C144.659 22.4922 145.021 22.4297 145.407 22.4297C145.98 22.4297 146.464 22.5365 146.86 22.75C147.261 22.9635 147.566 23.276 147.774 23.6875C147.982 24.0938 148.087 24.5911 148.087 25.1797V31H146.727V25.4922C146.727 25.0755 146.662 24.7318 146.532 24.4609C146.407 24.1849 146.214 23.9792 145.954 23.8438C145.693 23.7031 145.365 23.6328 144.969 23.6328C144.579 23.6328 144.238 23.7214 143.946 23.8984C143.654 24.0755 143.428 24.3125 143.266 24.6094C143.105 24.901 143.024 25.2266 143.024 25.5859V31H141.665V25.2812C141.665 24.9479 141.592 24.6589 141.446 24.4141C141.305 24.1641 141.102 23.9714 140.837 23.8359C140.576 23.7005 140.269 23.6328 139.915 23.6328C139.55 23.6328 139.219 23.7292 138.923 23.9219C138.631 24.1146 138.399 24.375 138.227 24.7031C138.061 25.026 137.977 25.3854 137.977 25.7812V31H136.618Z" fill="black"/>
<rect x="161.25" y="13" width="1" height="25" fill="#787880" fill-opacity="0.2"/>
<path d="M188.423 31V19.7266H189.829V24.6016H196.016V19.7266H197.423V31H196.016V25.8672H189.829V31H188.423ZM199.847 31V22.5781H201.206V31H199.847ZM200.534 20.9531C200.279 20.9531 200.058 20.862 199.87 20.6797C199.688 20.4922 199.597 20.2708 199.597 20.0156C199.597 19.7552 199.688 19.5339 199.87 19.3516C200.058 19.1693 200.279 19.0781 200.534 19.0781C200.795 19.0781 201.016 19.1693 201.198 19.3516C201.381 19.5339 201.472 19.7552 201.472 20.0156C201.472 20.2708 201.381 20.4922 201.198 20.6797C201.016 20.862 200.795 20.9531 200.534 20.9531ZM206.568 31.1484C205.86 31.1484 205.24 30.9688 204.709 30.6094C204.178 30.25 203.766 29.7448 203.474 29.0938C203.183 28.4375 203.037 27.6719 203.037 26.7969V26.7812C203.037 25.901 203.183 25.1354 203.474 24.4844C203.766 23.8333 204.175 23.3281 204.701 22.9688C205.232 22.6094 205.855 22.4297 206.568 22.4297C206.954 22.4297 207.316 22.4922 207.654 22.6172C207.998 22.737 208.303 22.9062 208.568 23.125C208.834 23.3438 209.042 23.6042 209.193 23.9062H209.318V19.2344H210.678V31H209.318V29.6562H209.193C209.021 29.9688 208.805 30.237 208.545 30.4609C208.284 30.6797 207.987 30.849 207.654 30.9688C207.321 31.0885 206.959 31.1484 206.568 31.1484ZM206.881 29.9453C207.391 29.9453 207.831 29.8177 208.201 29.5625C208.571 29.3073 208.855 28.9453 209.053 28.4766C209.25 28.0026 209.349 27.4427 209.349 26.7969V26.7812C209.349 26.1302 209.25 25.5703 209.053 25.1016C208.855 24.6328 208.571 24.2708 208.201 24.0156C207.831 23.7604 207.391 23.6328 206.881 23.6328C206.37 23.6328 205.93 23.7604 205.56 24.0156C205.196 24.2656 204.914 24.625 204.717 25.0938C204.524 25.5625 204.428 26.125 204.428 26.7812V26.7969C204.428 27.4479 204.524 28.0104 204.717 28.4844C204.914 28.9531 205.196 29.3151 205.56 29.5703C205.93 29.8203 206.37 29.9453 206.881 29.9453ZM216.414 31.1484C215.612 31.1484 214.922 30.9714 214.344 30.6172C213.771 30.263 213.328 29.763 213.016 29.1172C212.709 28.4661 212.555 27.7005 212.555 26.8203V26.8125C212.555 25.9427 212.709 25.1797 213.016 24.5234C213.328 23.8672 213.769 23.3542 214.336 22.9844C214.904 22.6146 215.568 22.4297 216.328 22.4297C217.094 22.4297 217.75 22.6068 218.297 22.9609C218.849 23.3151 219.271 23.8099 219.563 24.4453C219.86 25.0755 220.008 25.8099 220.008 26.6484V27.1797H213.258V26.0938H219.313L218.641 27.0859V26.5469C218.641 25.8854 218.542 25.3411 218.344 24.9141C218.146 24.487 217.873 24.1693 217.524 23.9609C217.175 23.7474 216.774 23.6406 216.321 23.6406C215.868 23.6406 215.461 23.7526 215.102 23.9766C214.748 24.1953 214.466 24.5208 214.258 24.9531C214.05 25.3854 213.946 25.9167 213.946 26.5469V27.0859C213.946 27.6849 214.047 28.1979 214.25 28.625C214.453 29.0469 214.743 29.3724 215.118 29.6016C215.493 29.8255 215.935 29.9375 216.446 29.9375C216.826 29.9375 217.157 29.8854 217.438 29.7812C217.719 29.6771 217.951 29.5443 218.133 29.3828C218.315 29.2214 218.443 29.0573 218.516 28.8906L218.547 28.8203H219.907L219.891 28.8828C219.818 29.1693 219.688 29.4479 219.5 29.7188C219.318 29.9844 219.081 30.2266 218.789 30.4453C218.498 30.6589 218.151 30.8307 217.75 30.9609C217.354 31.0859 216.909 31.1484 216.414 31.1484ZM226.169 31V19.7266H227.802L231.662 29.1328H231.787L235.646 19.7266H237.279V31H235.966V22.3906H235.279L236.857 20.0391L232.318 31H231.13L226.599 20.0391L228.169 22.3906H227.482V31H226.169ZM240.391 33.9531C240.302 33.9531 240.203 33.9479 240.094 33.9375C239.984 33.9323 239.883 33.9219 239.789 33.9062V32.7891C239.872 32.8047 239.964 32.8151 240.062 32.8203C240.161 32.8255 240.258 32.8281 240.352 32.8281C240.737 32.8281 241.052 32.7292 241.297 32.5312C241.547 32.3333 241.747 31.9922 241.898 31.5078L242.055 31.0078L238.938 22.5781H240.391L242.984 30.3594L242.445 29.5078H243.086L242.547 30.3594L245.133 22.5781H246.562L243.273 31.5156C243.044 32.1458 242.802 32.638 242.547 32.9922C242.292 33.3464 241.992 33.5938 241.648 33.7344C241.31 33.8802 240.891 33.9531 240.391 33.9531ZM252.411 31V19.7266H259.396V20.9922H253.818V24.6094H259.107V25.8594H253.818V29.7344H259.396V31H252.411ZM261.461 31V22.5781H262.82V23.8594H262.945C263.132 23.4062 263.419 23.0547 263.804 22.8047C264.195 22.5547 264.666 22.4297 265.218 22.4297C265.599 22.4297 265.94 22.4922 266.242 22.6172C266.544 22.7422 266.804 22.9167 267.023 23.1406C267.242 23.3594 267.416 23.6146 267.547 23.9062H267.672C267.823 23.6094 268.026 23.3516 268.281 23.1328C268.536 22.9089 268.83 22.737 269.164 22.6172C269.502 22.4922 269.864 22.4297 270.25 22.4297C270.823 22.4297 271.307 22.5365 271.703 22.75C272.104 22.9635 272.409 23.276 272.617 23.6875C272.825 24.0938 272.929 24.5911 272.929 25.1797V31H271.57V25.4922C271.57 25.0755 271.505 24.7318 271.375 24.4609C271.25 24.1849 271.057 23.9792 270.797 23.8438C270.536 23.7031 270.208 23.6328 269.812 23.6328C269.422 23.6328 269.08 23.7214 268.789 23.8984C268.497 24.0755 268.271 24.3125 268.109 24.6094C267.948 24.901 267.867 25.2266 267.867 25.5859V31H266.507V25.2812C266.507 24.9479 266.435 24.6589 266.289 24.4141C266.148 24.1641 265.945 23.9714 265.679 23.8359C265.419 23.7005 265.112 23.6328 264.757 23.6328C264.393 23.6328 264.062 23.7292 263.765 23.9219C263.474 24.1146 263.242 24.375 263.07 24.7031C262.903 25.026 262.82 25.3854 262.82 25.7812V31H261.461ZM277.385 31.1484C276.854 31.1484 276.375 31.0469 275.948 30.8438C275.526 30.6406 275.19 30.3516 274.94 29.9766C274.695 29.6016 274.573 29.1589 274.573 28.6484V28.6328C274.573 28.1328 274.692 27.7057 274.932 27.3516C275.171 26.9922 275.52 26.7109 275.979 26.5078C276.437 26.3047 276.992 26.1849 277.643 26.1484L280.737 25.9609V27.0469L277.807 27.2344C277.166 27.2708 276.698 27.4036 276.401 27.6328C276.109 27.862 275.963 28.1849 275.963 28.6016V28.6172C275.963 29.0443 276.125 29.3776 276.448 29.6172C276.77 29.8516 277.177 29.9688 277.666 29.9688C278.13 29.9688 278.541 29.8776 278.901 29.6953C279.26 29.5078 279.541 29.2552 279.744 28.9375C279.953 28.6198 280.057 28.2604 280.057 27.8594V25.2344C280.057 24.7135 279.898 24.3177 279.58 24.0469C279.268 23.7708 278.796 23.6328 278.166 23.6328C277.661 23.6328 277.247 23.724 276.924 23.9062C276.601 24.0833 276.385 24.3359 276.276 24.6641L276.268 24.6875H274.908L274.916 24.6406C274.989 24.1979 275.171 23.8125 275.463 23.4844C275.76 23.151 276.143 22.8932 276.612 22.7109C277.08 22.5234 277.614 22.4297 278.213 22.4297C278.901 22.4297 279.481 22.5417 279.955 22.7656C280.434 22.9896 280.796 23.3125 281.041 23.7344C281.291 24.151 281.416 24.651 281.416 25.2344V31H280.057V29.7578H279.932C279.755 30.0547 279.539 30.3073 279.283 30.5156C279.033 30.724 278.75 30.8828 278.432 30.9922C278.114 31.0964 277.765 31.1484 277.385 31.1484ZM283.622 31V22.5781H284.981V31H283.622ZM284.309 20.9531C284.054 20.9531 283.833 20.862 283.645 20.6797C283.463 20.4922 283.372 20.2708 283.372 20.0156C283.372 19.7552 283.463 19.5339 283.645 19.3516C283.833 19.1693 284.054 19.0781 284.309 19.0781C284.57 19.0781 284.791 19.1693 284.973 19.3516C285.156 19.5339 285.247 19.7552 285.247 20.0156C285.247 20.2708 285.156 20.4922 284.973 20.6797C284.791 20.862 284.57 20.9531 284.309 20.9531ZM287.312 31V19.2344H288.671V31H287.312Z" fill="black"/>
<rect x="314.75" y="13" width="1" height="25" fill="#787880" fill-opacity="0.2"/>
<path d="M333.5 13.9277C334.316 13.9277 335.083 14.0824 335.801 14.3916C336.518 14.6947 337.146 15.1183 337.684 15.6626C338.228 16.2007 338.652 16.8285 338.955 17.5459C339.264 18.2572 339.419 19.021 339.419 19.8374C339.419 21.1053 339.032 22.2464 338.259 23.2607C337.492 24.2751 336.391 25.0667 334.957 25.6357L337.434 28.1313C337.533 28.2303 337.582 28.3416 337.582 28.4653C337.588 28.589 337.545 28.6973 337.452 28.79L334.947 31.2856L336.775 33.0854C336.868 33.1844 336.914 33.2957 336.914 33.4194C336.92 33.5431 336.874 33.6545 336.775 33.7534L333.834 36.6943C333.735 36.7933 333.618 36.8366 333.481 36.8242C333.352 36.8118 333.246 36.7655 333.166 36.6851L331.617 35.1265C331.536 35.0399 331.474 34.9502 331.431 34.8574C331.394 34.7646 331.375 34.6595 331.375 34.542V25.3853C330.602 25.0884 329.931 24.6647 329.362 24.1143C328.793 23.5576 328.351 22.9144 328.036 22.1846C327.726 21.4486 327.572 20.6662 327.572 19.8374C327.572 19.0148 327.723 18.2479 328.026 17.5366C328.336 16.8192 328.759 16.1914 329.297 15.6533C329.842 15.109 330.469 14.6854 331.181 14.3823C331.898 14.0793 332.671 13.9277 333.5 13.9277ZM333.5 19.3643C333.927 19.3643 334.292 19.2127 334.595 18.9097C334.898 18.6066 335.049 18.2417 335.049 17.8149C335.049 17.382 334.898 17.0171 334.595 16.7202C334.292 16.4172 333.927 16.2656 333.5 16.2656C333.061 16.2656 332.693 16.4172 332.396 16.7202C332.099 17.0171 331.951 17.382 331.951 17.8149C331.951 18.2417 332.099 18.6066 332.396 18.9097C332.699 19.2127 333.067 19.3643 333.5 19.3643Z" fill="black"/>
<g filter="url(#filter1_d_208_2449)">
<rect x="228.805" y="215" width="39" height="42" rx="4.6" fill="white"/>
</g>
<path d="M249.805 242.078C249.529 242.078 249.29 241.979 249.086 241.781C248.889 241.578 248.79 241.339 248.79 241.062C248.79 240.781 248.889 240.542 249.086 240.344C249.29 240.146 249.529 240.047 249.805 240.047C250.086 240.047 250.326 240.146 250.524 240.344C250.722 240.542 250.821 240.781 250.821 241.062C250.821 241.339 250.722 241.578 250.524 241.781C250.326 241.979 250.086 242.078 249.805 242.078Z" fill="black"/>
<g filter="url(#filter2_d_208_2449)">
<rect x="184.604" y="215" width="39" height="42" rx="4.6" fill="white"/>
</g>
<path d="M205.964 243.828C204.958 243.828 204.05 243.677 203.237 243.375C202.425 243.073 201.732 242.635 201.159 242.062C200.586 241.495 200.146 240.81 199.839 240.008C199.531 239.206 199.378 238.307 199.378 237.312V237.297C199.378 236.333 199.531 235.453 199.839 234.656C200.151 233.859 200.594 233.172 201.167 232.594C201.74 232.016 202.419 231.57 203.206 231.258C203.997 230.945 204.872 230.789 205.831 230.789C207.065 230.789 208.151 231.034 209.089 231.523C210.031 232.008 210.768 232.682 211.3 233.547C211.831 234.406 212.096 235.401 212.096 236.531V236.547C212.096 237.391 211.977 238.125 211.737 238.75C211.497 239.37 211.156 239.852 210.714 240.195C210.276 240.534 209.758 240.703 209.159 240.703C208.711 240.703 208.328 240.589 208.01 240.359C207.698 240.125 207.51 239.818 207.448 239.438L207.44 239.391H207.315C207.149 239.786 206.896 240.094 206.557 240.312C206.219 240.526 205.82 240.633 205.362 240.633C204.82 240.633 204.344 240.495 203.932 240.219C203.526 239.938 203.208 239.549 202.979 239.055C202.755 238.56 202.643 237.982 202.643 237.32V237.305C202.643 236.674 202.758 236.117 202.987 235.633C203.221 235.148 203.542 234.771 203.948 234.5C204.359 234.224 204.831 234.086 205.362 234.086C205.774 234.086 206.143 234.185 206.471 234.383C206.8 234.581 207.039 234.849 207.19 235.188H207.315V234.234H208.495V238.82C208.495 239.091 208.57 239.305 208.721 239.461C208.878 239.612 209.096 239.688 209.378 239.688C209.706 239.688 209.99 239.557 210.229 239.297C210.474 239.036 210.662 238.669 210.792 238.195C210.927 237.721 210.995 237.167 210.995 236.531V236.516C210.995 235.578 210.774 234.753 210.331 234.039C209.888 233.326 209.271 232.771 208.479 232.375C207.688 231.974 206.771 231.773 205.729 231.773C204.964 231.773 204.26 231.911 203.62 232.188C202.984 232.458 202.43 232.844 201.956 233.344C201.487 233.844 201.122 234.432 200.862 235.109C200.607 235.786 200.479 236.531 200.479 237.344V237.359C200.479 238.469 200.706 239.435 201.159 240.258C201.612 241.076 202.25 241.708 203.073 242.156C203.896 242.609 204.865 242.836 205.979 242.836C206.339 242.836 206.685 242.82 207.018 242.789C207.357 242.758 207.664 242.714 207.94 242.656C208.216 242.599 208.435 242.534 208.596 242.461V243.445C208.247 243.565 207.844 243.659 207.385 243.727C206.932 243.794 206.458 243.828 205.964 243.828ZM205.542 239.531C206.078 239.531 206.505 239.333 206.823 238.938C207.141 238.542 207.3 238.013 207.3 237.352V237.336C207.3 236.669 207.141 236.141 206.823 235.75C206.51 235.359 206.089 235.164 205.557 235.164C205.208 235.164 204.909 235.25 204.659 235.422C204.414 235.594 204.224 235.844 204.089 236.172C203.958 236.495 203.893 236.883 203.893 237.336V237.352C203.893 237.799 203.958 238.188 204.089 238.516C204.224 238.844 204.414 239.096 204.659 239.273C204.909 239.445 205.203 239.531 205.542 239.531Z" fill="black"/>
<g filter="url(#filter3_d_208_2449)">
<rect x="92.519" y="215" width="87" height="42" rx="4.6" fill="white"/>
</g>
<path d="M121.764 242.148C121.139 242.148 120.587 242.055 120.108 241.867C119.629 241.674 119.243 241.406 118.952 241.062C118.665 240.719 118.496 240.315 118.444 239.852H119.834C119.949 240.201 120.173 240.482 120.506 240.695C120.84 240.909 121.274 241.016 121.811 241.016C122.191 241.016 122.524 240.961 122.811 240.852C123.103 240.737 123.332 240.583 123.498 240.391C123.665 240.193 123.748 239.966 123.748 239.711V239.695C123.748 239.409 123.634 239.167 123.405 238.969C123.176 238.766 122.801 238.602 122.28 238.477L120.975 238.164C120.449 238.039 120.017 237.878 119.678 237.68C119.34 237.477 119.09 237.229 118.928 236.938C118.767 236.641 118.686 236.292 118.686 235.891V235.883C118.686 235.414 118.821 234.995 119.092 234.625C119.368 234.255 119.743 233.964 120.217 233.75C120.691 233.536 121.225 233.43 121.819 233.43C122.407 233.43 122.928 233.523 123.381 233.711C123.84 233.893 124.207 234.154 124.483 234.492C124.764 234.831 124.936 235.229 124.998 235.688H123.662C123.574 235.354 123.371 235.083 123.053 234.875C122.735 234.667 122.321 234.562 121.811 234.562C121.478 234.562 121.181 234.617 120.92 234.727C120.66 234.831 120.454 234.977 120.303 235.164C120.152 235.352 120.077 235.57 120.077 235.82V235.836C120.077 236.023 120.126 236.19 120.225 236.336C120.324 236.482 120.478 236.609 120.686 236.719C120.894 236.828 121.162 236.924 121.491 237.008L122.787 237.32C123.579 237.513 124.168 237.789 124.553 238.148C124.944 238.508 125.139 238.99 125.139 239.594V239.609C125.139 240.109 124.991 240.552 124.694 240.938C124.397 241.318 123.993 241.615 123.483 241.828C122.978 242.042 122.405 242.148 121.764 242.148ZM126.938 244.812V233.578H128.298V234.922H128.423C128.595 234.609 128.811 234.344 129.071 234.125C129.332 233.901 129.629 233.729 129.962 233.609C130.295 233.49 130.657 233.43 131.048 233.43C131.761 233.43 132.381 233.612 132.907 233.977C133.438 234.336 133.85 234.841 134.142 235.492C134.433 236.143 134.579 236.906 134.579 237.781V237.797C134.579 238.677 134.433 239.443 134.142 240.094C133.85 240.745 133.438 241.25 132.907 241.609C132.381 241.969 131.761 242.148 131.048 242.148C130.662 242.148 130.298 242.089 129.954 241.969C129.616 241.844 129.313 241.672 129.048 241.453C128.787 241.234 128.579 240.974 128.423 240.672H128.298V244.812H126.938ZM130.735 240.945C131.251 240.945 131.691 240.82 132.056 240.57C132.42 240.315 132.699 239.953 132.892 239.484C133.089 239.01 133.188 238.448 133.188 237.797V237.781C133.188 237.125 133.089 236.562 132.892 236.094C132.699 235.625 132.42 235.266 132.056 235.016C131.691 234.76 131.251 234.633 130.735 234.633C130.225 234.633 129.785 234.76 129.415 235.016C129.045 235.271 128.761 235.633 128.563 236.102C128.366 236.57 128.267 237.13 128.267 237.781V237.797C128.267 238.443 128.366 239.003 128.563 239.477C128.761 239.945 129.045 240.307 129.415 240.562C129.785 240.818 130.225 240.945 130.735 240.945ZM138.707 242.148C138.175 242.148 137.696 242.047 137.269 241.844C136.847 241.641 136.511 241.352 136.261 240.977C136.016 240.602 135.894 240.159 135.894 239.648V239.633C135.894 239.133 136.014 238.706 136.253 238.352C136.493 237.992 136.842 237.711 137.3 237.508C137.759 237.305 138.313 237.185 138.964 237.148L142.058 236.961V238.047L139.128 238.234C138.488 238.271 138.019 238.404 137.722 238.633C137.431 238.862 137.285 239.185 137.285 239.602V239.617C137.285 240.044 137.446 240.378 137.769 240.617C138.092 240.852 138.498 240.969 138.988 240.969C139.451 240.969 139.863 240.878 140.222 240.695C140.582 240.508 140.863 240.255 141.066 239.938C141.274 239.62 141.378 239.26 141.378 238.859V236.234C141.378 235.714 141.22 235.318 140.902 235.047C140.589 234.771 140.118 234.633 139.488 234.633C138.983 234.633 138.569 234.724 138.246 234.906C137.923 235.083 137.707 235.336 137.597 235.664L137.589 235.688H136.23L136.238 235.641C136.311 235.198 136.493 234.812 136.785 234.484C137.082 234.151 137.464 233.893 137.933 233.711C138.402 233.523 138.936 233.43 139.535 233.43C140.222 233.43 140.803 233.542 141.277 233.766C141.756 233.99 142.118 234.312 142.363 234.734C142.613 235.151 142.738 235.651 142.738 236.234V242H141.378V240.758H141.253C141.076 241.055 140.86 241.307 140.605 241.516C140.355 241.724 140.071 241.883 139.753 241.992C139.436 242.096 139.087 242.148 138.707 242.148ZM148.357 242.148C147.571 242.148 146.889 241.969 146.311 241.609C145.732 241.25 145.285 240.742 144.967 240.086C144.649 239.43 144.49 238.656 144.49 237.766V237.75C144.49 236.875 144.647 236.115 144.959 235.469C145.277 234.823 145.725 234.323 146.303 233.969C146.881 233.609 147.563 233.43 148.35 233.43C149.032 233.43 149.621 233.549 150.115 233.789C150.61 234.029 151.006 234.352 151.303 234.758C151.6 235.159 151.79 235.609 151.873 236.109L151.881 236.156H150.529L150.522 236.133C150.417 235.716 150.18 235.362 149.811 235.07C149.441 234.779 148.954 234.633 148.35 234.633C147.844 234.633 147.407 234.76 147.037 235.016C146.667 235.271 146.381 235.633 146.178 236.102C145.98 236.565 145.881 237.115 145.881 237.75V237.766C145.881 238.411 145.982 238.974 146.186 239.453C146.389 239.927 146.675 240.294 147.045 240.555C147.415 240.815 147.85 240.945 148.35 240.945C148.917 240.945 149.381 240.823 149.74 240.578C150.1 240.333 150.357 239.977 150.514 239.508L150.529 239.461L151.873 239.453L151.857 239.539C151.743 240.044 151.54 240.495 151.248 240.891C150.956 241.281 150.571 241.589 150.092 241.812C149.613 242.036 149.035 242.148 148.357 242.148ZM156.993 242.148C156.191 242.148 155.501 241.971 154.922 241.617C154.35 241.263 153.907 240.763 153.594 240.117C153.287 239.466 153.133 238.701 153.133 237.82V237.812C153.133 236.943 153.287 236.18 153.594 235.523C153.907 234.867 154.347 234.354 154.915 233.984C155.482 233.615 156.146 233.43 156.907 233.43C157.672 233.43 158.329 233.607 158.876 233.961C159.428 234.315 159.85 234.81 160.141 235.445C160.438 236.076 160.587 236.81 160.587 237.648V238.18H153.837V237.094H159.891L159.219 238.086V237.547C159.219 236.885 159.12 236.341 158.922 235.914C158.725 235.487 158.451 235.169 158.102 234.961C157.753 234.747 157.352 234.641 156.899 234.641C156.446 234.641 156.04 234.753 155.68 234.977C155.326 235.195 155.045 235.521 154.837 235.953C154.628 236.385 154.524 236.917 154.524 237.547V238.086C154.524 238.685 154.626 239.198 154.829 239.625C155.032 240.047 155.321 240.372 155.696 240.602C156.071 240.826 156.514 240.938 157.024 240.938C157.404 240.938 157.735 240.885 158.016 240.781C158.297 240.677 158.529 240.544 158.712 240.383C158.894 240.221 159.021 240.057 159.094 239.891L159.126 239.82H160.485L160.469 239.883C160.396 240.169 160.266 240.448 160.079 240.719C159.896 240.984 159.659 241.227 159.368 241.445C159.076 241.659 158.73 241.831 158.329 241.961C157.933 242.086 157.488 242.148 156.993 242.148Z" fill="black"/>
<g filter="url(#filter4_d_208_2449)">
<rect x="272.977" y="215" width="84" height="42" rx="4.6" fill="#8F8F8F" style="mix-blend-mode:color-burn" shape-rendering="crispEdges"/>
</g>
<path d="M298.143 242V233.578H299.502V234.828H299.627C299.789 234.385 300.062 234.042 300.447 233.797C300.833 233.552 301.309 233.43 301.877 233.43C302.007 233.43 302.135 233.438 302.26 233.453C302.39 233.464 302.489 233.474 302.557 233.484V234.805C302.416 234.779 302.278 234.76 302.143 234.75C302.012 234.734 301.872 234.727 301.721 234.727C301.289 234.727 300.906 234.812 300.572 234.984C300.239 235.156 299.976 235.396 299.783 235.703C299.596 236.01 299.502 236.37 299.502 236.781V242H298.143ZM307.13 242.148C306.327 242.148 305.637 241.971 305.059 241.617C304.486 241.263 304.044 240.763 303.731 240.117C303.424 239.466 303.27 238.701 303.27 237.82V237.812C303.27 236.943 303.424 236.18 303.731 235.523C304.044 234.867 304.484 234.354 305.051 233.984C305.619 233.615 306.283 233.43 307.044 233.43C307.809 233.43 308.465 233.607 309.012 233.961C309.564 234.315 309.986 234.81 310.278 235.445C310.575 236.076 310.723 236.81 310.723 237.648V238.18H303.973V237.094H310.028L309.356 238.086V237.547C309.356 236.885 309.257 236.341 309.059 235.914C308.861 235.487 308.588 235.169 308.239 234.961C307.89 234.747 307.489 234.641 307.036 234.641C306.583 234.641 306.176 234.753 305.817 234.977C305.463 235.195 305.182 235.521 304.973 235.953C304.765 236.385 304.661 236.917 304.661 237.547V238.086C304.661 238.685 304.762 239.198 304.965 239.625C305.169 240.047 305.458 240.372 305.833 240.602C306.208 240.826 306.65 240.938 307.161 240.938C307.541 240.938 307.872 240.885 308.153 240.781C308.434 240.677 308.666 240.544 308.848 240.383C309.031 240.221 309.158 240.057 309.231 239.891L309.262 239.82H310.622L310.606 239.883C310.533 240.169 310.403 240.448 310.215 240.719C310.033 240.984 309.796 241.227 309.505 241.445C309.213 241.659 308.867 241.831 308.465 241.961C308.07 242.086 307.624 242.148 307.13 242.148ZM315.515 242.062C314.65 242.062 314.023 241.888 313.632 241.539C313.247 241.19 313.054 240.615 313.054 239.812V234.703H311.726V233.578H313.054V231.398H314.46V233.578H316.304V234.703H314.46V239.469C314.46 239.964 314.554 240.32 314.741 240.539C314.929 240.753 315.241 240.859 315.679 240.859C315.799 240.859 315.9 240.857 315.984 240.852C316.072 240.846 316.179 240.839 316.304 240.828V241.984C316.174 242.005 316.044 242.023 315.913 242.039C315.783 242.055 315.65 242.062 315.515 242.062ZM320.845 242.148C320.21 242.148 319.676 242.029 319.244 241.789C318.812 241.544 318.486 241.19 318.267 240.727C318.054 240.258 317.947 239.693 317.947 239.031V233.578H319.306V238.703C319.306 239.458 319.452 240.021 319.744 240.391C320.041 240.76 320.525 240.945 321.197 240.945C321.567 240.945 321.892 240.891 322.174 240.781C322.46 240.672 322.7 240.516 322.892 240.312C323.085 240.104 323.228 239.854 323.322 239.562C323.421 239.266 323.47 238.932 323.47 238.562V233.578H324.83V242H323.47V240.742H323.345C323.21 241.039 323.025 241.294 322.791 241.508C322.556 241.716 322.275 241.875 321.947 241.984C321.624 242.094 321.257 242.148 320.845 242.148ZM327.059 242V233.578H328.418V234.828H328.543C328.705 234.385 328.978 234.042 329.364 233.797C329.749 233.552 330.226 233.43 330.793 233.43C330.924 233.43 331.051 233.438 331.176 233.453C331.306 233.464 331.405 233.474 331.473 233.484V234.805C331.332 234.779 331.194 234.76 331.059 234.75C330.929 234.734 330.788 234.727 330.637 234.727C330.205 234.727 329.822 234.812 329.489 234.984C329.155 235.156 328.892 235.396 328.7 235.703C328.512 236.01 328.418 236.37 328.418 236.781V242H327.059ZM332.999 242V233.578H334.358V234.844H334.483C334.697 234.396 335.004 234.049 335.405 233.805C335.806 233.555 336.317 233.43 336.936 233.43C337.884 233.43 338.611 233.701 339.116 234.242C339.627 234.779 339.882 235.547 339.882 236.547V242H338.522V236.875C338.522 236.115 338.361 235.552 338.038 235.188C337.72 234.818 337.225 234.633 336.554 234.633C336.106 234.633 335.718 234.729 335.39 234.922C335.061 235.115 334.806 235.388 334.624 235.742C334.447 236.096 334.358 236.521 334.358 237.016V242H332.999Z" fill="black"/>
<g filter="url(#filter5_d_208_2449)">
<rect x="2.74805" y="215" width="84" height="42" rx="4.6" fill="#8F8F8F" style="mix-blend-mode:color-burn" shape-rendering="crispEdges"/>
</g>
<path d="M33.2221 242L37.3784 230.727H38.4565V232.547H38.0112L34.6987 242H33.2221ZM35.1049 238.773L35.5424 237.578H40.6362L41.0737 238.773H35.1049ZM41.4487 242L38.1362 232.547V230.727H38.769L42.9252 242H41.4487ZM45.2949 242V240.758H48.7793C49.6283 240.758 50.2715 240.589 50.709 240.25C51.1465 239.911 51.3652 239.419 51.3652 238.773V238.758C51.3652 238.326 51.2637 237.964 51.0605 237.672C50.8574 237.38 50.5527 237.161 50.1465 237.016C49.7454 236.87 49.2454 236.797 48.6465 236.797H45.2949V235.586H48.248C49.1022 235.586 49.7428 235.435 50.1699 235.133C50.6022 234.831 50.8184 234.383 50.8184 233.789V233.773C50.8184 233.201 50.623 232.758 50.2324 232.445C49.847 232.128 49.3053 231.969 48.6074 231.969H45.2949V230.727H48.9043C49.597 230.727 50.1908 230.841 50.6855 231.07C51.1855 231.299 51.5684 231.625 51.834 232.047C52.1048 232.464 52.2402 232.958 52.2402 233.531V233.547C52.2402 233.938 52.1517 234.305 51.9746 234.648C51.8027 234.992 51.571 235.281 51.2793 235.516C50.9876 235.75 50.6595 235.901 50.2949 235.969V236.094C50.8105 236.156 51.2559 236.31 51.6309 236.555C52.0059 236.799 52.2949 237.117 52.498 237.508C52.7064 237.893 52.8105 238.333 52.8105 238.828V238.844C52.8105 239.5 52.6569 240.065 52.3496 240.539C52.0475 241.008 51.6126 241.37 51.0449 241.625C50.4772 241.875 49.7923 242 48.9902 242H45.2949ZM44.5918 242V230.727H45.998V242H44.5918ZM59.3365 242.266C58.3156 242.266 57.4328 242.026 56.688 241.547C55.9433 241.068 55.3677 240.388 54.9615 239.508C54.5604 238.628 54.3599 237.583 54.3599 236.375V236.359C54.3599 235.146 54.5604 234.099 54.9615 233.219C55.3677 232.339 55.9406 231.659 56.6802 231.18C57.425 230.701 58.3078 230.461 59.3287 230.461C60.1203 230.461 60.8391 230.617 61.4849 230.93C62.136 231.237 62.6724 231.667 63.0943 232.219C63.5162 232.766 63.7818 233.398 63.8912 234.117L63.8834 234.133H62.4693L62.4615 234.117C62.3365 233.633 62.1255 233.216 61.8287 232.867C61.5318 232.513 61.1698 232.24 60.7427 232.047C60.3209 231.854 59.8495 231.758 59.3287 231.758C58.6099 231.758 57.9849 231.945 57.4537 232.32C56.9276 232.695 56.5214 233.227 56.2349 233.914C55.9485 234.602 55.8052 235.417 55.8052 236.359V236.375C55.8052 237.312 55.9485 238.125 56.2349 238.812C56.5214 239.5 56.9276 240.031 57.4537 240.406C57.9849 240.781 58.6125 240.969 59.3365 240.969C59.8625 240.969 60.3391 240.885 60.7662 240.719C61.1933 240.547 61.5526 240.305 61.8443 239.992C62.136 239.674 62.3391 239.299 62.4537 238.867L62.4693 238.852H63.8912V238.867C63.7662 239.555 63.4953 240.154 63.0787 240.664C62.662 241.169 62.1334 241.562 61.4927 241.844C60.8573 242.125 60.1386 242.266 59.3365 242.266Z" fill="black"/>
<g filter="url(#filter6_d_208_2449)">
<rect x="56.7939" y="161" width="30" height="42" rx="4.6" fill="white"/>
</g>
<path d="M67.0088 188V186.486L74.1133 177.062V177.001H67.021V175.244H76.5425V176.794L69.4868 186.181V186.242H76.5791V188H67.0088Z" fill="black"/>
<g filter="url(#filter7_d_208_2449)">
<rect x="92.8528" y="161" width="30" height="42" rx="4.6" fill="white"/>
</g>
<path d="M102.36 188L106.705 181.616L102.421 175.244H104.801L107.865 180.017H107.938L110.953 175.244H113.334L109.012 181.53L113.285 188H110.905L107.865 183.154H107.792L104.716 188H102.36Z" fill="black"/>
<g filter="url(#filter8_d_208_2449)">
<rect x="128.912" y="161" width="30" height="42" rx="4.6" fill="white"/>
</g>
<path d="M144.79 188.244C143.586 188.244 142.54 187.972 141.653 187.426C140.774 186.881 140.09 186.112 139.602 185.119C139.122 184.126 138.882 182.954 138.882 181.604V181.591C138.882 180.249 139.126 179.085 139.614 178.1C140.103 177.115 140.786 176.354 141.665 175.817C142.552 175.272 143.586 175 144.766 175C145.824 175 146.731 175.203 147.488 175.61C148.253 176.017 148.855 176.546 149.295 177.197C149.734 177.84 149.998 178.527 150.088 179.26L150.1 179.357H148.025L148.001 179.26C147.846 178.625 147.5 178.072 146.963 177.6C146.434 177.119 145.702 176.879 144.766 176.879C144.025 176.879 143.374 177.075 142.813 177.465C142.259 177.848 141.828 178.393 141.519 179.101C141.209 179.809 141.055 180.647 141.055 181.616V181.628C141.055 182.613 141.209 183.459 141.519 184.167C141.836 184.875 142.276 185.42 142.837 185.803C143.399 186.177 144.05 186.364 144.79 186.364C145.661 186.364 146.369 186.149 146.914 185.717C147.459 185.278 147.826 184.7 148.013 183.984L148.037 183.898H150.125L150.112 183.984C149.99 184.79 149.693 185.514 149.221 186.157C148.749 186.8 148.135 187.308 147.378 187.683C146.629 188.057 145.767 188.244 144.79 188.244Z" fill="black"/>
<g filter="url(#filter9_d_208_2449)">
<rect x="164.971" y="161" width="30" height="42" rx="4.6" fill="white"/>
</g>
<path d="M179.384 188L174.684 175.244H176.918L180.434 185.729H180.507L184.035 175.244H186.245L181.557 188H179.384Z" fill="black"/>
<g filter="url(#filter10_d_208_2449)">
<rect x="201.03" y="161" width="30" height="42" rx="4.6" fill="white"/>
</g>
<path d="M217.299 188.244C216.696 188.244 216.139 188.146 215.626 187.951C215.114 187.756 214.658 187.483 214.259 187.133C213.86 186.775 213.527 186.352 213.258 185.864H213.197V188H211.073V170.275H213.197V177.355H213.258C213.527 176.875 213.86 176.46 214.259 176.11C214.666 175.752 215.13 175.48 215.651 175.292C216.18 175.097 216.741 175 217.335 175C218.409 175 219.345 175.272 220.143 175.817C220.948 176.363 221.579 177.132 222.035 178.125C222.491 179.109 222.719 180.269 222.719 181.604V181.628C222.719 182.963 222.491 184.126 222.035 185.119C221.587 186.112 220.957 186.881 220.143 187.426C219.337 187.972 218.389 188.244 217.299 188.244ZM216.871 186.364C217.628 186.364 218.279 186.173 218.824 185.791C219.378 185.408 219.801 184.863 220.094 184.155C220.395 183.439 220.546 182.596 220.546 181.628V181.604C220.546 180.627 220.395 179.789 220.094 179.089C219.801 178.381 219.378 177.836 218.824 177.453C218.279 177.071 217.628 176.879 216.871 176.879C216.147 176.879 215.508 177.075 214.955 177.465C214.401 177.856 213.966 178.405 213.649 179.113C213.331 179.821 213.173 180.651 213.173 181.604V181.628C213.173 182.58 213.327 183.414 213.636 184.13C213.954 184.838 214.389 185.388 214.943 185.778C215.504 186.169 216.147 186.364 216.871 186.364Z" fill="black"/>
<g filter="url(#filter11_d_208_2449)">
<rect x="237.088" y="161" width="30" height="42" rx="4.6" fill="white"/>
</g>
<path d="M246.864 188V175.244H248.988V177.075H249.049C249.391 176.464 249.883 175.968 250.526 175.585C251.177 175.195 251.983 175 252.943 175C254.351 175 255.441 175.423 256.214 176.269C256.987 177.107 257.374 178.259 257.374 179.724V188H255.25V180.114C255.25 179.064 255.006 178.263 254.518 177.709C254.029 177.156 253.293 176.879 252.308 176.879C251.633 176.879 251.047 177.03 250.55 177.331C250.054 177.624 249.667 178.043 249.391 178.588C249.122 179.125 248.988 179.756 248.988 180.48V188H246.864Z" fill="black"/>
<g filter="url(#filter12_d_208_2449)">
<rect x="273.147" y="161" width="30" height="42" rx="4.6" fill="white"/>
</g>
<path d="M279.956 188V175.244H282.08V177.111H282.141C282.426 176.477 282.873 175.968 283.484 175.585C284.094 175.195 284.81 175 285.632 175C286.21 175 286.735 175.097 287.207 175.292C287.679 175.48 288.086 175.756 288.427 176.123C288.769 176.481 289.03 176.912 289.209 177.417H289.282C289.518 176.912 289.831 176.481 290.222 176.123C290.621 175.764 291.076 175.488 291.589 175.292C292.11 175.097 292.667 175 293.261 175C294.108 175 294.84 175.174 295.459 175.524C296.077 175.866 296.557 176.35 296.899 176.977C297.241 177.596 297.412 178.332 297.412 179.187V188H295.288V179.675C295.288 179.081 295.182 178.576 294.97 178.161C294.767 177.746 294.466 177.429 294.067 177.209C293.677 176.989 293.196 176.879 292.627 176.879C292.065 176.879 291.565 177.01 291.125 177.27C290.694 177.53 290.356 177.889 290.112 178.344C289.868 178.792 289.746 179.305 289.746 179.882V188H287.622V179.431C287.622 178.918 287.512 178.47 287.292 178.088C287.073 177.705 286.767 177.408 286.377 177.197C285.986 176.985 285.526 176.879 284.997 176.879C284.436 176.879 283.935 177.018 283.496 177.294C283.056 177.571 282.711 177.945 282.458 178.417C282.206 178.881 282.08 179.414 282.08 180.017V188H279.956Z" fill="black"/>
<g filter="url(#filter13_d_208_2449)">
<rect x="316.947" y="161" width="40" height="42" rx="4.6" fill="#8F8F8F" style="mix-blend-mode:color-burn" shape-rendering="crispEdges"/>
</g>
<path d="M344.212 190.953L335.736 190.943C335.351 190.943 334.987 190.901 334.642 190.816C334.303 190.738 333.978 190.611 333.665 190.436C333.359 190.26 333.073 190.032 332.806 189.752L327.044 183.805C326.725 183.473 326.491 183.157 326.341 182.857C326.191 182.551 326.116 182.249 326.116 181.949C326.116 181.741 326.149 181.539 326.214 181.344C326.279 181.142 326.38 180.937 326.517 180.729C326.654 180.52 326.829 180.309 327.044 180.094L332.796 174.117C333.063 173.837 333.35 173.613 333.656 173.443C333.968 173.274 334.294 173.154 334.632 173.082C334.977 173.01 335.342 172.975 335.726 172.975H344.212C345.234 172.975 345.999 173.229 346.507 173.736C347.021 174.238 347.279 174.993 347.279 176.002V187.926C347.279 188.935 347.021 189.69 346.507 190.191C345.999 190.699 345.234 190.953 344.212 190.953ZM344.193 189.381C344.681 189.381 345.055 189.254 345.316 189C345.576 188.74 345.706 188.355 345.706 187.848V176.08C345.706 175.572 345.576 175.191 345.316 174.938C345.055 174.677 344.681 174.547 344.193 174.547H335.697C335.332 174.547 335.016 174.589 334.749 174.674C334.489 174.758 334.232 174.931 333.978 175.191L328.265 181.119C327.978 181.432 327.835 181.708 327.835 181.949C327.835 182.073 327.865 182.2 327.923 182.33C327.988 182.454 328.102 182.6 328.265 182.77L333.988 188.678C334.241 188.938 334.499 189.12 334.759 189.225C335.019 189.329 335.335 189.381 335.706 189.381H344.193ZM335.159 186.09C334.945 186.09 334.759 186.012 334.603 185.855C334.453 185.699 334.378 185.514 334.378 185.299C334.378 185.084 334.456 184.902 334.613 184.752L337.386 181.969L334.613 179.186C334.456 179.036 334.378 178.854 334.378 178.639C334.378 178.424 334.453 178.242 334.603 178.092C334.759 177.942 334.945 177.867 335.159 177.867C335.381 177.867 335.563 177.945 335.706 178.102L338.49 180.875L341.302 178.092C341.458 177.929 341.637 177.848 341.839 177.848C342.054 177.848 342.236 177.926 342.386 178.082C342.542 178.232 342.62 178.414 342.62 178.629C342.62 178.837 342.542 179.02 342.386 179.176L339.603 181.969L342.376 184.742C342.532 184.898 342.611 185.084 342.611 185.299C342.611 185.514 342.532 185.699 342.376 185.855C342.226 186.012 342.044 186.09 341.829 186.09C341.615 186.09 341.429 186.008 341.273 185.846L338.49 183.072L335.726 185.846C335.576 186.008 335.387 186.09 335.159 186.09Z" fill="black"/>
<g filter="url(#filter14_d_208_2449)">
<rect x="2.74805" y="161" width="40" height="42" rx="4.6" fill="#8F8F8F" style="mix-blend-mode:color-burn" shape-rendering="crispEdges"/>
</g>
<path d="M20.2305 190.953C19.5469 190.953 19.026 190.764 18.668 190.387C18.3099 190.016 18.1309 189.508 18.1309 188.863V184.488H14.1562C13.7591 184.488 13.4238 184.378 13.1504 184.156C12.877 183.928 12.7402 183.629 12.7402 183.258C12.7402 183.03 12.7891 182.828 12.8867 182.652C12.9909 182.477 13.1374 182.294 13.3262 182.105L22.0371 173.424C22.2259 173.229 22.418 173.082 22.6133 172.984C22.8151 172.88 23.0234 172.828 23.2383 172.828C23.4596 172.828 23.668 172.88 23.8633 172.984C24.0651 173.082 24.2604 173.229 24.4492 173.424L33.1602 182.105C33.3359 182.281 33.4759 182.46 33.5801 182.643C33.6908 182.825 33.7461 183.03 33.7461 183.258C33.7461 183.629 33.6061 183.928 33.3262 184.156C33.0527 184.378 32.7174 184.488 32.3203 184.488H28.3555V188.863C28.3555 189.508 28.1764 190.016 27.8184 190.387C27.4603 190.764 26.9395 190.953 26.2559 190.953H20.2305ZM20.3867 189.439H26.0996C26.2754 189.439 26.4219 189.381 26.5391 189.264C26.6628 189.146 26.7246 189 26.7246 188.824V183.346C26.7246 183.124 26.832 183.014 27.0469 183.014H31.5488C31.6204 183.014 31.6562 182.988 31.6562 182.936C31.6562 182.896 31.6367 182.857 31.5977 182.818L23.4434 174.713C23.4108 174.674 23.3783 174.648 23.3457 174.635C23.3132 174.622 23.2773 174.615 23.2383 174.615C23.2057 174.615 23.1732 174.622 23.1406 174.635C23.1081 174.648 23.0723 174.674 23.0332 174.713L14.8789 182.818C14.8398 182.857 14.8203 182.896 14.8203 182.936C14.8203 182.988 14.8561 183.014 14.9277 183.014H19.4395C19.6543 183.014 19.7617 183.124 19.7617 183.346V188.824C19.7617 189.007 19.8203 189.153 19.9375 189.264C20.0547 189.381 20.2044 189.439 20.3867 189.439Z" fill="black"/>
<g filter="url(#filter15_d_208_2449)">
<rect x="21.0687" y="107" width="30" height="42" rx="4.6" fill="white"/>
</g>
<path d="M35.3724 134.244C34.5342 134.244 33.7937 134.085 33.1508 133.768C32.516 133.451 32.0196 133.003 31.6615 132.425C31.3034 131.847 31.1244 131.172 31.1244 130.399V130.375C31.1244 129.642 31.3034 129.011 31.6615 128.482C32.0277 127.945 32.5567 127.522 33.2484 127.213C33.9401 126.904 34.7743 126.721 35.7509 126.664L40.4628 126.395V128.043L35.995 128.312C35.1242 128.368 34.4569 128.576 33.993 128.934C33.5292 129.292 33.2972 129.772 33.2972 130.375V130.399C33.2972 131.009 33.5292 131.498 33.993 131.864C34.4569 132.222 35.0713 132.401 35.8363 132.401C36.5118 132.401 37.118 132.263 37.6552 131.986C38.1923 131.701 38.6154 131.314 38.9247 130.826C39.2421 130.33 39.4008 129.776 39.4008 129.166V125.37C39.4008 124.588 39.1566 123.978 38.6683 123.539C38.1882 123.099 37.4965 122.879 36.5931 122.879C35.7875 122.879 35.1324 123.054 34.6278 123.404C34.1314 123.746 33.8181 124.198 33.6879 124.759L33.6635 124.857H31.6005L31.6127 124.723C31.6859 124.031 31.9301 123.404 32.3451 122.843C32.7683 122.273 33.342 121.826 34.0663 121.5C34.7906 121.166 35.6451 121 36.6298 121C37.6389 121 38.5096 121.17 39.2421 121.512C39.9745 121.854 40.536 122.338 40.9266 122.965C41.3254 123.591 41.5248 124.332 41.5248 125.187V134H39.4008V131.949H39.3397C39.0874 132.413 38.7579 132.82 38.351 133.17C37.9522 133.512 37.4965 133.776 36.9838 133.963C36.4792 134.151 35.9421 134.244 35.3724 134.244Z" fill="black"/>
<g filter="url(#filter16_d_208_2449)">
<rect x="57.0535" y="107" width="30" height="42" rx="4.6" fill="white"/>
</g>
<path d="M72.1023 134.244C71.1095 134.244 70.2468 134.09 69.5144 133.78C68.7901 133.463 68.2164 133.023 67.7932 132.462C67.37 131.892 67.1137 131.229 67.0242 130.472L67.012 130.375H69.1482L69.1726 130.484C69.311 131.111 69.6202 131.599 70.1003 131.949C70.5886 132.299 71.26 132.474 72.1145 132.474C72.7004 132.474 73.1969 132.397 73.6038 132.242C74.0188 132.088 74.3403 131.868 74.5681 131.583C74.796 131.298 74.9099 130.965 74.9099 130.582V130.57C74.9099 130.114 74.7634 129.748 74.4705 129.471C74.1856 129.186 73.6729 128.95 72.9324 128.763L70.9182 128.275C70.1207 128.08 69.4574 127.827 68.9285 127.518C68.4076 127.201 68.017 126.814 67.7566 126.358C67.4962 125.903 67.366 125.37 67.366 124.759V124.747C67.366 124.015 67.5653 123.368 67.9641 122.806C68.3629 122.245 68.9163 121.805 69.6243 121.488C70.3323 121.162 71.142 121 72.0535 121C72.9812 121 73.7909 121.162 74.4827 121.488C75.1744 121.813 75.7196 122.257 76.1184 122.818C76.5172 123.372 76.745 124.007 76.802 124.723L76.8142 124.857H74.7756V124.784C74.6861 124.173 74.4054 123.685 73.9333 123.319C73.4695 122.953 72.8429 122.77 72.0535 122.77C71.5408 122.77 71.0932 122.847 70.7107 123.001C70.3363 123.156 70.0474 123.376 69.844 123.661C69.6405 123.945 69.5388 124.275 69.5388 124.649V124.662C69.5388 124.946 69.608 125.207 69.7463 125.443C69.8847 125.671 70.1003 125.87 70.3933 126.041C70.6944 126.212 71.0769 126.354 71.5408 126.468L73.5671 126.957C74.8448 127.266 75.7481 127.693 76.2771 128.238C76.8142 128.784 77.0828 129.512 77.0828 130.423V130.436C77.0828 131.184 76.863 131.843 76.4236 132.413C75.9923 132.983 75.4023 133.43 74.6536 133.756C73.9049 134.081 73.0544 134.244 72.1023 134.244Z" fill="black"/>
<g filter="url(#filter17_d_208_2449)">
<rect x="93.0382" y="107" width="30" height="42" rx="4.6" fill="white"/>
</g>
<path d="M107.757 134.244C106.666 134.244 105.714 133.972 104.901 133.426C104.095 132.881 103.464 132.112 103.008 131.119C102.561 130.126 102.337 128.963 102.337 127.628V127.604C102.337 126.269 102.561 125.109 103.008 124.125C103.464 123.132 104.095 122.363 104.901 121.817C105.714 121.272 106.654 121 107.72 121C108.323 121 108.884 121.097 109.405 121.292C109.926 121.48 110.39 121.752 110.797 122.11C111.203 122.46 111.533 122.875 111.785 123.355H111.859V116.275H113.983V134H111.859V131.864H111.785C111.525 132.352 111.195 132.775 110.797 133.133C110.398 133.483 109.942 133.756 109.429 133.951C108.925 134.146 108.367 134.244 107.757 134.244ZM108.172 132.364C108.904 132.364 109.547 132.169 110.101 131.778C110.662 131.388 111.098 130.838 111.407 130.13C111.716 129.414 111.871 128.58 111.871 127.628V127.604C111.871 126.651 111.712 125.821 111.395 125.113C111.085 124.405 110.654 123.856 110.101 123.465C109.547 123.075 108.904 122.879 108.172 122.879C107.423 122.879 106.772 123.071 106.219 123.453C105.674 123.836 105.25 124.381 104.949 125.089C104.656 125.789 104.51 126.627 104.51 127.604V127.628C104.51 128.596 104.656 129.439 104.949 130.155C105.25 130.863 105.674 131.408 106.219 131.791C106.772 132.173 107.423 132.364 108.172 132.364Z" fill="black"/>
<g filter="url(#filter18_d_208_2449)">
<rect x="129.023" y="107" width="30" height="42" rx="4.6" fill="white"/>
</g>
<path d="M142.302 134V123.001H140.471V121.244H142.302V119.693C142.302 118.871 142.432 118.192 142.692 117.655C142.953 117.11 143.343 116.707 143.864 116.446C144.385 116.186 145.04 116.056 145.83 116.056C146.066 116.056 146.302 116.064 146.538 116.08C146.774 116.096 146.973 116.117 147.136 116.141V117.862C147.006 117.846 146.859 117.834 146.696 117.826C146.542 117.818 146.379 117.813 146.208 117.813C145.598 117.813 145.142 117.972 144.841 118.29C144.548 118.599 144.401 119.071 144.401 119.706V121.244H147.062V123.001H144.426V134H142.302Z" fill="black"/>
<g filter="url(#filter19_d_208_2449)">
<rect x="165.008" y="107" width="30" height="42" rx="4.6" fill="white"/>
</g>
<path d="M179.873 138.529C178.832 138.529 177.92 138.378 177.139 138.077C176.366 137.784 175.739 137.381 175.259 136.869C174.787 136.356 174.482 135.782 174.344 135.147L174.331 135.05H176.468L176.516 135.147C176.712 135.603 177.098 135.965 177.676 136.234C178.254 136.511 178.978 136.649 179.849 136.649C180.98 136.649 181.851 136.364 182.461 135.794C183.08 135.233 183.389 134.46 183.389 133.475V131.705H183.328C183.068 132.185 182.738 132.596 182.339 132.938C181.94 133.28 181.481 133.544 180.96 133.731C180.447 133.919 179.886 134.012 179.275 134.012C178.201 134.012 177.257 133.744 176.443 133.207C175.629 132.661 174.995 131.9 174.539 130.924C174.091 129.947 173.868 128.804 173.868 127.494V127.481C173.868 126.179 174.095 125.044 174.551 124.076C175.015 123.099 175.654 122.342 176.468 121.805C177.29 121.268 178.242 121 179.324 121C179.926 121 180.48 121.101 180.984 121.305C181.497 121.508 181.949 121.789 182.339 122.147C182.738 122.505 183.068 122.92 183.328 123.392H183.389V121.244H185.513V133.67C185.513 134.655 185.281 135.51 184.817 136.234C184.362 136.966 183.71 137.532 182.864 137.931C182.026 138.329 181.029 138.529 179.873 138.529ZM179.739 132.132C180.472 132.132 181.11 131.941 181.656 131.559C182.209 131.168 182.636 130.627 182.937 129.935C183.247 129.235 183.401 128.421 183.401 127.494V127.481C183.401 126.554 183.247 125.748 182.937 125.064C182.636 124.373 182.209 123.836 181.656 123.453C181.102 123.071 180.463 122.879 179.739 122.879C178.982 122.879 178.323 123.071 177.762 123.453C177.208 123.827 176.781 124.361 176.48 125.052C176.187 125.744 176.04 126.554 176.04 127.481V127.494C176.04 128.446 176.187 129.268 176.48 129.959C176.781 130.651 177.208 131.188 177.762 131.571C178.323 131.945 178.982 132.132 179.739 132.132Z" fill="black"/>
<g filter="url(#filter20_d_208_2449)">
<rect x="200.992" y="107" width="30" height="42" rx="4.6" fill="white"/>
</g>
<path d="M210.743 134V116.275H212.867V123.258H212.928C213.27 122.55 213.775 121.996 214.442 121.598C215.118 121.199 215.927 121 216.871 121C217.783 121 218.58 121.215 219.264 121.646C219.948 122.07 220.476 122.664 220.851 123.429C221.233 124.194 221.425 125.093 221.425 126.126V134H219.301V126.505C219.301 125.357 219.028 124.466 218.483 123.832C217.937 123.197 217.164 122.879 216.163 122.879C215.504 122.879 214.926 123.034 214.43 123.343C213.934 123.653 213.547 124.08 213.27 124.625C213.002 125.17 212.867 125.809 212.867 126.542V134H210.743Z" fill="black"/>
<g filter="url(#filter21_d_208_2449)">
<rect x="236.977" y="107" width="30" height="42" rx="4.6" fill="white"/>
</g>
<path d="M249.084 138.321C249.019 138.321 248.954 138.321 248.889 138.321C248.815 138.321 248.746 138.317 248.681 138.309V136.441C248.738 136.441 248.795 136.441 248.852 136.441C248.901 136.441 248.954 136.441 249.011 136.441C249.702 136.441 250.191 136.307 250.476 136.039C250.76 135.778 250.903 135.29 250.903 134.574V121.244H253.027V134.549C253.027 135.843 252.709 136.795 252.075 137.406C251.44 138.016 250.443 138.321 249.084 138.321ZM251.965 119.034C251.59 119.034 251.269 118.904 251 118.644C250.74 118.383 250.61 118.066 250.61 117.691C250.61 117.309 250.74 116.987 251 116.727C251.269 116.467 251.59 116.336 251.965 116.336C252.339 116.336 252.657 116.467 252.917 116.727C253.177 116.987 253.308 117.309 253.308 117.691C253.308 118.066 253.177 118.383 252.917 118.644C252.657 118.904 252.339 119.034 251.965 119.034Z" fill="black"/>
<g filter="url(#filter22_d_208_2449)">
<rect x="272.962" y="107" width="30" height="42" rx="4.6" fill="white"/>
</g>
<path d="M283.921 134V116.275H286.045V134H283.921ZM291.978 134L287.107 127.884L288.535 126.468L294.468 134H291.978ZM285.593 129.618L285.581 126.859H286.118L291.697 121.244H294.272L288.23 127.237L288.01 127.311L285.593 129.618Z" fill="black"/>
<g filter="url(#filter23_d_208_2449)">
<rect x="308.947" y="107" width="30" height="42" rx="4.6" fill="white"/>
</g>
<path d="M322.885 134V116.275H325.009V134H322.885Z" fill="black"/>
<g filter="url(#filter24_d_208_2449)">
<rect x="2.74805" y="53" width="30" height="42" rx="4.6" fill="white"/>
</g>
<path d="M21.1294 84.2847V77.9492H21.0684C20.8161 78.4131 20.4906 78.8159 20.0918 79.1577C19.693 79.4995 19.2332 79.764 18.7124 79.9512C18.1916 80.1302 17.626 80.2197 17.0156 80.2197C15.9414 80.2197 14.9974 79.9471 14.1836 79.4019C13.3698 78.8566 12.735 78.0876 12.2793 77.0947C11.8317 76.1019 11.6079 74.9422 11.6079 73.6157V73.6035C11.6079 72.2689 11.8358 71.1092 12.2915 70.1245C12.7554 69.1398 13.3942 68.3789 14.208 67.8418C15.0299 67.2965 15.978 67.0239 17.0522 67.0239C17.6545 67.0239 18.2078 67.1257 18.7124 67.3291C19.2251 67.5244 19.6808 67.8011 20.0796 68.1592C20.4784 68.5091 20.8079 68.9201 21.0684 69.3921H21.1294V67.2437H23.2534V84.2847H21.1294ZM17.4795 78.3398C18.2119 78.3398 18.8507 78.1486 19.396 77.7661C19.9494 77.3755 20.3766 76.8262 20.6777 76.1182C20.987 75.402 21.1416 74.5679 21.1416 73.6157V73.6035C21.1416 72.6432 20.987 71.8132 20.6777 71.1133C20.3766 70.4134 19.9494 69.8722 19.396 69.4897C18.8507 69.0991 18.2119 68.9038 17.4795 68.9038C16.7227 68.9038 16.0675 69.0951 15.5142 69.4775C14.9608 69.86 14.5335 70.4012 14.2324 71.1011C13.9313 71.8009 13.7808 72.6351 13.7808 73.6035V73.6157C13.7808 74.5923 13.9313 75.4346 14.2324 76.1426C14.5335 76.8506 14.9608 77.3958 15.5142 77.7783C16.0675 78.1527 16.7227 78.3398 17.4795 78.3398Z" fill="black"/>
<g filter="url(#filter25_d_208_2449)">
<rect x="38.7985" y="53" width="30" height="42" rx="4.6" fill="white"/>
</g>
<path d="M49.2325 80L45.6559 67.2437H47.7799L50.319 77.5952H50.3922L53.2731 67.2437H55.3116L58.2047 77.5952H58.2657L60.817 67.2437H62.9166L59.3644 80H57.2037L54.3229 70.1245H54.2496L51.3932 80H49.2325Z" fill="black"/>
<g filter="url(#filter26_d_208_2449)">
<rect x="74.8488" y="53" width="30" height="42" rx="4.6" fill="white"/>
</g>
<path d="M90.0441 80.2441C88.8315 80.2441 87.7858 79.9756 86.9069 79.4385C86.028 78.8932 85.3525 78.1283 84.8805 77.1436C84.4085 76.1589 84.1725 74.9992 84.1725 73.6646V73.6523C84.1725 72.3421 84.4085 71.1865 84.8805 70.1855C85.3606 69.1846 86.028 68.4033 86.8824 67.8418C87.7451 67.2803 88.7542 66.9995 89.9098 66.9995C91.0735 66.9995 92.0745 67.2681 92.9127 67.8052C93.7509 68.3423 94.3938 69.0951 94.8414 70.0635C95.289 71.0238 95.5128 72.1387 95.5128 73.4082V74.2017H85.2467V72.5293H94.463L93.3888 74.0796V73.2495C93.3888 72.2567 93.2382 71.4388 92.9371 70.7959C92.6442 70.153 92.2332 69.6729 91.7042 69.3555C91.1834 69.0381 90.5812 68.8794 89.8976 68.8794C89.2221 68.8794 88.6118 69.0462 88.0665 69.3799C87.5294 69.7135 87.1062 70.2059 86.797 70.8569C86.4878 71.508 86.3331 72.3055 86.3331 73.2495V74.0796C86.3331 74.9748 86.4837 75.7438 86.7848 76.3867C87.094 77.0215 87.5294 77.5098 88.0909 77.8516C88.6606 78.1934 89.3279 78.3643 90.0929 78.3643C90.6381 78.3643 91.1224 78.2829 91.5455 78.1201C91.9768 77.9574 92.3349 77.7376 92.6198 77.4609C92.9046 77.1761 93.108 76.8587 93.2301 76.5088L93.2667 76.3989H95.3541L95.3297 76.5088C95.2239 77.0215 95.0205 77.5057 94.7194 77.9614C94.4264 78.409 94.048 78.8078 93.5841 79.1577C93.1284 79.4995 92.5994 79.7681 91.9972 79.9634C91.4031 80.1506 90.7521 80.2441 90.0441 80.2441Z" fill="black"/>
<g filter="url(#filter27_d_208_2449)">
<rect x="110.899" y="53" width="30" height="42" rx="4.6" fill="white"/>
</g>
<path d="M123.385 80V67.2437H125.509V69.3677H125.57C125.789 68.6353 126.164 68.0575 126.693 67.6343C127.23 67.2111 127.869 66.9995 128.609 66.9995C128.796 66.9995 128.967 67.0117 129.122 67.0361C129.276 67.0524 129.399 67.0687 129.488 67.085V69.1479C129.39 69.1154 129.236 69.0869 129.024 69.0625C128.821 69.0381 128.589 69.0259 128.328 69.0259C127.767 69.0259 127.27 69.152 126.839 69.4043C126.416 69.6484 126.086 70.0024 125.85 70.4663C125.622 70.922 125.509 71.4714 125.509 72.1143V80H123.385Z" fill="black"/>
<g filter="url(#filter28_d_208_2449)">
<rect x="146.95" y="53" width="30" height="42" rx="4.6" fill="white"/>
</g>
<path d="M163.744 80.2197C162.556 80.2197 161.669 79.9471 161.083 79.4019C160.505 78.8485 160.216 77.9614 160.216 76.7407V69.0015H158.324V67.2437H160.216V63.8135H162.413V67.2437H164.891V69.0015H162.413V76.6553C162.413 77.347 162.56 77.819 162.853 78.0713C163.146 78.3236 163.585 78.4497 164.171 78.4497C164.31 78.4497 164.436 78.4456 164.55 78.4375C164.672 78.4212 164.786 78.409 164.891 78.4009V80.1343C164.753 80.1506 164.578 80.1668 164.367 80.1831C164.163 80.2075 163.956 80.2197 163.744 80.2197Z" fill="black"/>
<g filter="url(#filter29_d_208_2449)">
<rect x="183" y="53" width="30" height="42" rx="4.6" fill="white"/>
</g>
<path d="M194.997 84.3213C194.801 84.3213 194.602 84.3091 194.398 84.2847C194.195 84.2684 194.024 84.248 193.886 84.2236V82.4902C193.975 82.5065 194.081 82.5228 194.203 82.5391C194.333 82.5553 194.464 82.5635 194.594 82.5635C195.261 82.5635 195.794 82.4373 196.193 82.1851C196.592 81.9409 196.917 81.4608 197.169 80.7446L197.426 80.0122L192.689 67.2437H194.96L198.671 78.4497L198.17 77.8516H198.854L198.354 78.4497L202.077 67.2437H204.311L199.33 80.7935C199.021 81.6235 198.675 82.2949 198.292 82.8076C197.918 83.3285 197.466 83.7109 196.938 83.9551C196.409 84.1992 195.762 84.3213 194.997 84.3213Z" fill="black"/>
<g filter="url(#filter30_d_208_2449)">
<rect x="219.05" y="53" width="30" height="42" rx="4.6" fill="white"/>
</g>
<path d="M233.159 80.2441C232.223 80.2441 231.426 80.0529 230.767 79.6704C230.116 79.2879 229.615 78.7427 229.265 78.0347C228.923 77.3267 228.752 76.4884 228.752 75.52V67.2437H230.876V75.1172C230.876 76.1751 231.117 76.9808 231.597 77.5342C232.077 78.0876 232.809 78.3643 233.794 78.3643C234.315 78.3643 234.779 78.2788 235.186 78.1079C235.592 77.937 235.942 77.6969 236.235 77.3877C236.528 77.0703 236.752 76.6878 236.907 76.2402C237.061 75.7926 237.139 75.2962 237.139 74.751V67.2437H239.263V80H237.139V78.1689H237.065C236.846 78.5677 236.553 78.9258 236.187 79.2432C235.828 79.5524 235.393 79.7965 234.88 79.9756C234.376 80.1546 233.802 80.2441 233.159 80.2441Z" fill="black"/>
<g filter="url(#filter31_d_208_2449)">
<rect x="255.101" y="53" width="30" height="42" rx="4.6" fill="white"/>
</g>
<path d="M269.039 80V67.2437H271.163V80H269.039ZM270.101 65.0342C269.726 65.0342 269.405 64.904 269.136 64.6436C268.876 64.3831 268.746 64.0658 268.746 63.6914C268.746 63.3089 268.876 62.9875 269.136 62.7271C269.405 62.4666 269.726 62.3364 270.101 62.3364C270.475 62.3364 270.792 62.4666 271.053 62.7271C271.313 62.9875 271.443 63.3089 271.443 63.6914C271.443 64.0658 271.313 64.3831 271.053 64.6436C270.792 64.904 270.475 65.0342 270.101 65.0342Z" fill="black"/>
<g filter="url(#filter32_d_208_2449)">
<rect x="291.151" y="53" width="30" height="42" rx="4.6" fill="white"/>
</g>
<path d="M306.151 80.2441C304.971 80.2441 303.938 79.9756 303.051 79.4385C302.163 78.8932 301.472 78.1283 300.975 77.1436C300.487 76.1507 300.243 74.9788 300.243 73.6279V73.6035C300.243 72.2445 300.487 71.0726 300.975 70.0879C301.472 69.0951 302.163 68.3341 303.051 67.8052C303.938 67.2681 304.967 66.9995 306.139 66.9995C307.327 66.9995 308.361 67.2681 309.24 67.8052C310.127 68.3341 310.814 69.0951 311.302 70.0879C311.799 71.0726 312.047 72.2445 312.047 73.6035V73.6279C312.047 74.9788 311.799 76.1507 311.302 77.1436C310.814 78.1283 310.131 78.8932 309.252 79.4385C308.373 79.9756 307.339 80.2441 306.151 80.2441ZM306.163 78.3643C306.928 78.3643 307.583 78.1771 308.129 77.8027C308.682 77.4284 309.109 76.8872 309.41 76.1792C309.72 75.4712 309.874 74.6208 309.874 73.6279V73.6035C309.874 72.6025 309.72 71.7521 309.41 71.0522C309.109 70.3442 308.678 69.8071 308.116 69.4409C307.563 69.0666 306.904 68.8794 306.139 68.8794C305.398 68.8794 304.747 69.0666 304.186 69.4409C303.624 69.8153 303.189 70.3524 302.88 71.0522C302.57 71.7521 302.416 72.6025 302.416 73.6035V73.6279C302.416 74.6208 302.57 75.4712 302.88 76.1792C303.189 76.8872 303.624 77.4284 304.186 77.8027C304.747 78.1771 305.406 78.3643 306.163 78.3643Z" fill="black"/>
<g filter="url(#filter33_d_208_2449)">
<rect x="327.201" y="53" width="30" height="42" rx="4.6" fill="white"/>
</g>
<path d="M336.696 84.2847V67.2437H338.82V69.3799H338.881C339.15 68.8835 339.483 68.4603 339.882 68.1104C340.281 67.7604 340.737 67.4878 341.249 67.2925C341.762 67.0972 342.319 66.9995 342.922 66.9995C344.012 66.9995 344.96 67.2721 345.766 67.8174C346.58 68.3626 347.21 69.1317 347.658 70.1245C348.106 71.1174 348.329 72.2811 348.329 73.6157V73.6279C348.329 74.9707 348.101 76.1385 347.646 77.1313C347.198 78.116 346.572 78.881 345.766 79.4263C344.968 79.9715 344.032 80.2441 342.958 80.2441C342.364 80.2441 341.803 80.1506 341.274 79.9634C340.753 79.7681 340.289 79.4954 339.882 79.1455C339.483 78.7874 339.15 78.3683 338.881 77.8882H338.82V84.2847H336.696ZM342.494 78.3643C343.251 78.3643 343.902 78.173 344.448 77.7905C345.001 77.3999 345.424 76.8506 345.717 76.1426C346.01 75.4346 346.156 74.5964 346.156 73.6279V73.6157C346.156 72.631 346.01 71.7887 345.717 71.0889C345.424 70.3809 345.001 69.8356 344.448 69.4531C343.902 69.0706 343.251 68.8794 342.494 68.8794C341.77 68.8794 341.127 69.0747 340.566 69.4653C340.012 69.856 339.577 70.4053 339.26 71.1133C338.95 71.8213 338.796 72.6554 338.796 73.6157V73.6279C338.796 74.5882 338.954 75.4224 339.272 76.1304C339.589 76.8384 340.024 77.3877 340.578 77.7783C341.131 78.1689 341.77 78.3643 342.494 78.3643Z" fill="black"/>
<path d="M33.45 292.39C31.34 292.39 29.1 292.09 27.06 291.57C26.68 290.99 26.4 290.37 26.27 289.74C28.42 290.35 30.92 290.77 33.46 290.77C36 290.77 38.5 290.35 40.66 289.74C40.51 290.37 40.24 290.99 39.87 291.57C37.83 292.08 35.59 292.39 33.46 292.39H33.45ZM33.45 296.46C37.97 296.46 41.6 293.14 42.1 289.2C42.21 288.41 41.69 288.05 40.99 288.25C38.45 289 36.07 289.42 33.45 289.42C30.83 289.42 28.47 289 25.92 288.25C25.22 288.05 24.71 288.41 24.81 289.2C25.3 293.14 28.92 296.46 33.45 296.46ZM37.35 286.28C38.18 286.28 38.92 285.53 38.92 284.47C38.92 283.41 38.18 282.65 37.35 282.65C36.52 282.65 35.79 283.41 35.79 284.47C35.79 285.53 36.52 286.28 37.35 286.28ZM29.53 286.28C30.37 286.28 31.11 285.53 31.11 284.47C31.11 283.41 30.37 282.65 29.53 282.65C28.69 282.65 27.99 283.41 27.99 284.47C27.99 285.53 28.7 286.28 29.53 286.28ZM33.46 298.63C27.26 298.63 22.29 293.66 22.29 287.45C22.29 281.24 27.25 276.28 33.45 276.28C39.65 276.28 44.64 281.25 44.64 287.46C44.64 293.67 39.67 298.64 33.46 298.64V298.63ZM33.46 300.91C40.82 300.91 46.92 294.81 46.92 287.45C46.92 280.09 40.82 274 33.45 274C26.08 274 20 280.1 20 287.46C20 294.82 26.1 300.92 33.46 300.92V300.91Z" fill="#1B1F26" fill-opacity="0.72"/>
<path d="M317.061 289.374V286.698C317.061 286.425 317.157 286.192 317.351 285.999C317.544 285.806 317.777 285.709 318.049 285.709C318.331 285.709 318.568 285.806 318.761 285.999C318.955 286.192 319.051 286.425 319.051 286.698V289.295C319.051 290.789 319.359 292.099 319.974 293.224C320.589 294.349 321.455 295.223 322.571 295.847C323.688 296.462 324.997 296.77 326.5 296.77C328.003 296.77 329.308 296.462 330.416 295.847C331.532 295.223 332.397 294.349 333.013 293.224C333.628 292.099 333.936 290.789 333.936 289.295V286.698C333.936 286.425 334.032 286.192 334.226 285.999C334.419 285.806 334.656 285.709 334.938 285.709C335.21 285.709 335.443 285.806 335.636 285.999C335.83 286.192 335.926 286.425 335.926 286.698V289.374C335.926 291.097 335.57 292.626 334.858 293.962C334.155 295.298 333.171 296.37 331.905 297.179C330.64 297.979 329.167 298.449 327.489 298.589V301.661H332.38C332.661 301.661 332.898 301.758 333.092 301.951C333.285 302.145 333.382 302.382 333.382 302.663C333.382 302.936 333.285 303.168 333.092 303.362C332.898 303.555 332.661 303.652 332.38 303.652H320.607C320.326 303.652 320.088 303.555 319.895 303.362C319.702 303.168 319.605 302.936 319.605 302.663C319.605 302.382 319.702 302.145 319.895 301.951C320.088 301.758 320.326 301.661 320.607 301.661H325.498V298.589C323.819 298.449 322.347 297.979 321.082 297.179C319.816 296.37 318.827 295.298 318.115 293.962C317.412 292.626 317.061 291.097 317.061 289.374ZM321.701 288.899V280.607C321.701 279.596 321.903 278.704 322.308 277.931C322.712 277.148 323.274 276.538 323.995 276.098C324.716 275.659 325.551 275.439 326.5 275.439C327.44 275.439 328.271 275.659 328.992 276.098C329.712 276.538 330.275 277.148 330.679 277.931C331.083 278.704 331.286 279.596 331.286 280.607V288.899C331.286 289.91 331.083 290.807 330.679 291.589C330.275 292.362 329.712 292.969 328.992 293.408C328.271 293.848 327.44 294.067 326.5 294.067C325.551 294.067 324.716 293.848 323.995 293.408C323.274 292.969 322.712 292.362 322.308 291.589C321.903 290.807 321.701 289.91 321.701 288.899ZM323.692 288.899C323.692 289.875 323.947 290.653 324.457 291.233C324.975 291.813 325.656 292.103 326.5 292.103C327.344 292.103 328.021 291.813 328.53 291.233C329.04 290.653 329.295 289.875 329.295 288.899V280.607C329.295 279.631 329.04 278.854 328.53 278.273C328.021 277.693 327.344 277.403 326.5 277.403C325.656 277.403 324.975 277.693 324.457 278.273C323.947 278.854 323.692 279.631 323.692 280.607V288.899Z" fill="#1B1F26" fill-opacity="0.72"/>
<rect width="139" height="5" rx="2.5" transform="matrix(-1 0 0 1 249.5 323)" fill="black"/>
<defs>
<filter id="filter0_b_208_2449" x="-150" y="-150" width="660" height="636" filterUnits="userSpaceOnUse" color-interpolation-filters="sRGB">
<feFlood flood-opacity="0" result="BackgroundImageFix"/>
<feGaussianBlur in="BackgroundImageFix" stdDeviation="75"/>
<feComposite in2="SourceAlpha" operator="in" result="effect1_backgroundBlur_208_2449"/>
<feBlend mode="normal" in="SourceGraphic" in2="effect1_backgroundBlur_208_2449" result="shape"/>
</filter>
<filter id="filter1_d_208_2449" x="228.805" y="215" width="39" height="43" filterUnits="userSpaceOnUse" color-interpolation-filters="sRGB">
<feFlood flood-opacity="0" result="BackgroundImageFix"/>
<feColorMatrix in="SourceAlpha" type="matrix" values="0 0 0 0 0 0 0 0 0 0 0 0 0 0 0 0 0 0 127 0" result="hardAlpha"/>
<feOffset dy="1"/>
<feComposite in2="hardAlpha" operator="out"/>
<feColorMatrix type="matrix" values="0 0 0 0 0 0 0 0 0 0 0 0 0 0 0 0 0 0 0.35 0"/>
<feBlend mode="normal" in2="BackgroundImageFix" result="effect1_dropShadow_208_2449"/>
<feBlend mode="normal" in="SourceGraphic" in2="effect1_dropShadow_208_2449" result="shape"/>
</filter>
<filter id="filter2_d_208_2449" x="184.604" y="215" width="39" height="43" filterUnits="userSpaceOnUse" color-interpolation-filters="sRGB">
<feFlood flood-opacity="0" result="BackgroundImageFix"/>
<feColorMatrix in="SourceAlpha" type="matrix" values="0 0 0 0 0 0 0 0 0 0 0 0 0 0 0 0 0 0 127 0" result="hardAlpha"/>
<feOffset dy="1"/>
<feComposite in2="hardAlpha" operator="out"/>
<feColorMatrix type="matrix" values="0 0 0 0 0 0 0 0 0 0 0 0 0 0 0 0 0 0 0.35 0"/>
<feBlend mode="normal" in2="BackgroundImageFix" result="effect1_dropShadow_208_2449"/>
<feBlend mode="normal" in="SourceGraphic" in2="effect1_dropShadow_208_2449" result="shape"/>
</filter>
<filter id="filter3_d_208_2449" x="92.519" y="215" width="87" height="43" filterUnits="userSpaceOnUse" color-interpolation-filters="sRGB">
<feFlood flood-opacity="0" result="BackgroundImageFix"/>
<feColorMatrix in="SourceAlpha" type="matrix" values="0 0 0 0 0 0 0 0 0 0 0 0 0 0 0 0 0 0 127 0" result="hardAlpha"/>
<feOffset dy="1"/>
<feComposite in2="hardAlpha" operator="out"/>
<feColorMatrix type="matrix" values="0 0 0 0 0 0 0 0 0 0 0 0 0 0 0 0 0 0 0.35 0"/>
<feBlend mode="normal" in2="BackgroundImageFix" result="effect1_dropShadow_208_2449"/>
<feBlend mode="normal" in="SourceGraphic" in2="effect1_dropShadow_208_2449" result="shape"/>
</filter>
<filter id="filter4_d_208_2449" x="272.977" y="215" width="84" height="43" filterUnits="userSpaceOnUse" color-interpolation-filters="sRGB">
<feFlood flood-opacity="0" result="BackgroundImageFix"/>
<feColorMatrix in="SourceAlpha" type="matrix" values="0 0 0 0 0 0 0 0 0 0 0 0 0 0 0 0 0 0 127 0" result="hardAlpha"/>
<feOffset dy="1"/>
<feComposite in2="hardAlpha" operator="out"/>
<feColorMatrix type="matrix" values="0 0 0 0 0 0 0 0 0 0 0 0 0 0 0 0 0 0 0.35 0"/>
<feBlend mode="normal" in2="BackgroundImageFix" result="effect1_dropShadow_208_2449"/>
<feBlend mode="normal" in="SourceGraphic" in2="effect1_dropShadow_208_2449" result="shape"/>
</filter>
<filter id="filter5_d_208_2449" x="2.74805" y="215" width="84" height="43" filterUnits="userSpaceOnUse" color-interpolation-filters="sRGB">
<feFlood flood-opacity="0" result="BackgroundImageFix"/>
<feColorMatrix in="SourceAlpha" type="matrix" values="0 0 0 0 0 0 0 0 0 0 0 0 0 0 0 0 0 0 127 0" result="hardAlpha"/>
<feOffset dy="1"/>
<feComposite in2="hardAlpha" operator="out"/>
<feColorMatrix type="matrix" values="0 0 0 0 0 0 0 0 0 0 0 0 0 0 0 0 0 0 0.35 0"/>
<feBlend mode="normal" in2="BackgroundImageFix" result="effect1_dropShadow_208_2449"/>
<feBlend mode="normal" in="SourceGraphic" in2="effect1_dropShadow_208_2449" result="shape"/>
</filter>
<filter id="filter6_d_208_2449" x="56.7939" y="161" width="30" height="43" filterUnits="userSpaceOnUse" color-interpolation-filters="sRGB">
<feFlood flood-opacity="0" result="BackgroundImageFix"/>
<feColorMatrix in="SourceAlpha" type="matrix" values="0 0 0 0 0 0 0 0 0 0 0 0 0 0 0 0 0 0 127 0" result="hardAlpha"/>
<feOffset dy="1"/>
<feComposite in2="hardAlpha" operator="out"/>
<feColorMatrix type="matrix" values="0 0 0 0 0 0 0 0 0 0 0 0 0 0 0 0 0 0 0.35 0"/>
<feBlend mode="normal" in2="BackgroundImageFix" result="effect1_dropShadow_208_2449"/>
<feBlend mode="normal" in="SourceGraphic" in2="effect1_dropShadow_208_2449" result="shape"/>
</filter>
<filter id="filter7_d_208_2449" x="92.8528" y="161" width="30" height="43" filterUnits="userSpaceOnUse" color-interpolation-filters="sRGB">
<feFlood flood-opacity="0" result="BackgroundImageFix"/>
<feColorMatrix in="SourceAlpha" type="matrix" values="0 0 0 0 0 0 0 0 0 0 0 0 0 0 0 0 0 0 127 0" result="hardAlpha"/>
<feOffset dy="1"/>
<feComposite in2="hardAlpha" operator="out"/>
<feColorMatrix type="matrix" values="0 0 0 0 0 0 0 0 0 0 0 0 0 0 0 0 0 0 0.35 0"/>
<feBlend mode="normal" in2="BackgroundImageFix" result="effect1_dropShadow_208_2449"/>
<feBlend mode="normal" in="SourceGraphic" in2="effect1_dropShadow_208_2449" result="shape"/>
</filter>
<filter id="filter8_d_208_2449" x="128.912" y="161" width="30" height="43" filterUnits="userSpaceOnUse" color-interpolation-filters="sRGB">
<feFlood flood-opacity="0" result="BackgroundImageFix"/>
<feColorMatrix in="SourceAlpha" type="matrix" values="0 0 0 0 0 0 0 0 0 0 0 0 0 0 0 0 0 0 127 0" result="hardAlpha"/>
<feOffset dy="1"/>
<feComposite in2="hardAlpha" operator="out"/>
<feColorMatrix type="matrix" values="0 0 0 0 0 0 0 0 0 0 0 0 0 0 0 0 0 0 0.35 0"/>
<feBlend mode="normal" in2="BackgroundImageFix" result="effect1_dropShadow_208_2449"/>
<feBlend mode="normal" in="SourceGraphic" in2="effect1_dropShadow_208_2449" result="shape"/>
</filter>
<filter id="filter9_d_208_2449" x="164.971" y="161" width="30.0001" height="43" filterUnits="userSpaceOnUse" color-interpolation-filters="sRGB">
<feFlood flood-opacity="0" result="BackgroundImageFix"/>
<feColorMatrix in="SourceAlpha" type="matrix" values="0 0 0 0 0 0 0 0 0 0 0 0 0 0 0 0 0 0 127 0" result="hardAlpha"/>
<feOffset dy="1"/>
<feComposite in2="hardAlpha" operator="out"/>
<feColorMatrix type="matrix" values="0 0 0 0 0 0 0 0 0 0 0 0 0 0 0 0 0 0 0.35 0"/>
<feBlend mode="normal" in2="BackgroundImageFix" result="effect1_dropShadow_208_2449"/>
<feBlend mode="normal" in="SourceGraphic" in2="effect1_dropShadow_208_2449" result="shape"/>
</filter>
<filter id="filter10_d_208_2449" x="201.03" y="161" width="30" height="43" filterUnits="userSpaceOnUse" color-interpolation-filters="sRGB">
<feFlood flood-opacity="0" result="BackgroundImageFix"/>
<feColorMatrix in="SourceAlpha" type="matrix" values="0 0 0 0 0 0 0 0 0 0 0 0 0 0 0 0 0 0 127 0" result="hardAlpha"/>
<feOffset dy="1"/>
<feComposite in2="hardAlpha" operator="out"/>
<feColorMatrix type="matrix" values="0 0 0 0 0 0 0 0 0 0 0 0 0 0 0 0 0 0 0.35 0"/>
<feBlend mode="normal" in2="BackgroundImageFix" result="effect1_dropShadow_208_2449"/>
<feBlend mode="normal" in="SourceGraphic" in2="effect1_dropShadow_208_2449" result="shape"/>
</filter>
<filter id="filter11_d_208_2449" x="237.088" y="161" width="30" height="43" filterUnits="userSpaceOnUse" color-interpolation-filters="sRGB">
<feFlood flood-opacity="0" result="BackgroundImageFix"/>
<feColorMatrix in="SourceAlpha" type="matrix" values="0 0 0 0 0 0 0 0 0 0 0 0 0 0 0 0 0 0 127 0" result="hardAlpha"/>
<feOffset dy="1"/>
<feComposite in2="hardAlpha" operator="out"/>
<feColorMatrix type="matrix" values="0 0 0 0 0 0 0 0 0 0 0 0 0 0 0 0 0 0 0.35 0"/>
<feBlend mode="normal" in2="BackgroundImageFix" result="effect1_dropShadow_208_2449"/>
<feBlend mode="normal" in="SourceGraphic" in2="effect1_dropShadow_208_2449" result="shape"/>
</filter>
<filter id="filter12_d_208_2449" x="273.147" y="161" width="30" height="43" filterUnits="userSpaceOnUse" color-interpolation-filters="sRGB">
<feFlood flood-opacity="0" result="BackgroundImageFix"/>
<feColorMatrix in="SourceAlpha" type="matrix" values="0 0 0 0 0 0 0 0 0 0 0 0 0 0 0 0 0 0 127 0" result="hardAlpha"/>
<feOffset dy="1"/>
<feComposite in2="hardAlpha" operator="out"/>
<feColorMatrix type="matrix" values="0 0 0 0 0 0 0 0 0 0 0 0 0 0 0 0 0 0 0.35 0"/>
<feBlend mode="normal" in2="BackgroundImageFix" result="effect1_dropShadow_208_2449"/>
<feBlend mode="normal" in="SourceGraphic" in2="effect1_dropShadow_208_2449" result="shape"/>
</filter>
<filter id="filter13_d_208_2449" x="316.947" y="161" width="40" height="43" filterUnits="userSpaceOnUse" color-interpolation-filters="sRGB">
<feFlood flood-opacity="0" result="BackgroundImageFix"/>
<feColorMatrix in="SourceAlpha" type="matrix" values="0 0 0 0 0 0 0 0 0 0 0 0 0 0 0 0 0 0 127 0" result="hardAlpha"/>
<feOffset dy="1"/>
<feComposite in2="hardAlpha" operator="out"/>
<feColorMatrix type="matrix" values="0 0 0 0 0 0 0 0 0 0 0 0 0 0 0 0 0 0 0.35 0"/>
<feBlend mode="normal" in2="BackgroundImageFix" result="effect1_dropShadow_208_2449"/>
<feBlend mode="normal" in="SourceGraphic" in2="effect1_dropShadow_208_2449" result="shape"/>
</filter>
<filter id="filter14_d_208_2449" x="2.74805" y="161" width="40" height="43" filterUnits="userSpaceOnUse" color-interpolation-filters="sRGB">
<feFlood flood-opacity="0" result="BackgroundImageFix"/>
<feColorMatrix in="SourceAlpha" type="matrix" values="0 0 0 0 0 0 0 0 0 0 0 0 0 0 0 0 0 0 127 0" result="hardAlpha"/>
<feOffset dy="1"/>
<feComposite in2="hardAlpha" operator="out"/>
<feColorMatrix type="matrix" values="0 0 0 0 0 0 0 0 0 0 0 0 0 0 0 0 0 0 0.35 0"/>
<feBlend mode="normal" in2="BackgroundImageFix" result="effect1_dropShadow_208_2449"/>
<feBlend mode="normal" in="SourceGraphic" in2="effect1_dropShadow_208_2449" result="shape"/>
</filter>
<filter id="filter15_d_208_2449" x="21.0687" y="107" width="30" height="43" filterUnits="userSpaceOnUse" color-interpolation-filters="sRGB">
<feFlood flood-opacity="0" result="BackgroundImageFix"/>
<feColorMatrix in="SourceAlpha" type="matrix" values="0 0 0 0 0 0 0 0 0 0 0 0 0 0 0 0 0 0 127 0" result="hardAlpha"/>
<feOffset dy="1"/>
<feComposite in2="hardAlpha" operator="out"/>
<feColorMatrix type="matrix" values="0 0 0 0 0 0 0 0 0 0 0 0 0 0 0 0 0 0 0.35 0"/>
<feBlend mode="normal" in2="BackgroundImageFix" result="effect1_dropShadow_208_2449"/>
<feBlend mode="normal" in="SourceGraphic" in2="effect1_dropShadow_208_2449" result="shape"/>
</filter>
<filter id="filter16_d_208_2449" x="57.0535" y="107" width="30" height="43" filterUnits="userSpaceOnUse" color-interpolation-filters="sRGB">
<feFlood flood-opacity="0" result="BackgroundImageFix"/>
<feColorMatrix in="SourceAlpha" type="matrix" values="0 0 0 0 0 0 0 0 0 0 0 0 0 0 0 0 0 0 127 0" result="hardAlpha"/>
<feOffset dy="1"/>
<feComposite in2="hardAlpha" operator="out"/>
<feColorMatrix type="matrix" values="0 0 0 0 0 0 0 0 0 0 0 0 0 0 0 0 0 0 0.35 0"/>
<feBlend mode="normal" in2="BackgroundImageFix" result="effect1_dropShadow_208_2449"/>
<feBlend mode="normal" in="SourceGraphic" in2="effect1_dropShadow_208_2449" result="shape"/>
</filter>
<filter id="filter17_d_208_2449" x="93.0382" y="107" width="30" height="43" filterUnits="userSpaceOnUse" color-interpolation-filters="sRGB">
<feFlood flood-opacity="0" result="BackgroundImageFix"/>
<feColorMatrix in="SourceAlpha" type="matrix" values="0 0 0 0 0 0 0 0 0 0 0 0 0 0 0 0 0 0 127 0" result="hardAlpha"/>
<feOffset dy="1"/>
<feComposite in2="hardAlpha" operator="out"/>
<feColorMatrix type="matrix" values="0 0 0 0 0 0 0 0 0 0 0 0 0 0 0 0 0 0 0.35 0"/>
<feBlend mode="normal" in2="BackgroundImageFix" result="effect1_dropShadow_208_2449"/>
<feBlend mode="normal" in="SourceGraphic" in2="effect1_dropShadow_208_2449" result="shape"/>
</filter>
<filter id="filter18_d_208_2449" x="129.023" y="107" width="30" height="43" filterUnits="userSpaceOnUse" color-interpolation-filters="sRGB">
<feFlood flood-opacity="0" result="BackgroundImageFix"/>
<feColorMatrix in="SourceAlpha" type="matrix" values="0 0 0 0 0 0 0 0 0 0 0 0 0 0 0 0 0 0 127 0" result="hardAlpha"/>
<feOffset dy="1"/>
<feComposite in2="hardAlpha" operator="out"/>
<feColorMatrix type="matrix" values="0 0 0 0 0 0 0 0 0 0 0 0 0 0 0 0 0 0 0.35 0"/>
<feBlend mode="normal" in2="BackgroundImageFix" result="effect1_dropShadow_208_2449"/>
<feBlend mode="normal" in="SourceGraphic" in2="effect1_dropShadow_208_2449" result="shape"/>
</filter>
<filter id="filter19_d_208_2449" x="165.008" y="107" width="30.0001" height="43" filterUnits="userSpaceOnUse" color-interpolation-filters="sRGB">
<feFlood flood-opacity="0" result="BackgroundImageFix"/>
<feColorMatrix in="SourceAlpha" type="matrix" values="0 0 0 0 0 0 0 0 0 0 0 0 0 0 0 0 0 0 127 0" result="hardAlpha"/>
<feOffset dy="1"/>
<feComposite in2="hardAlpha" operator="out"/>
<feColorMatrix type="matrix" values="0 0 0 0 0 0 0 0 0 0 0 0 0 0 0 0 0 0 0.35 0"/>
<feBlend mode="normal" in2="BackgroundImageFix" result="effect1_dropShadow_208_2449"/>
<feBlend mode="normal" in="SourceGraphic" in2="effect1_dropShadow_208_2449" result="shape"/>
</filter>
<filter id="filter20_d_208_2449" x="200.992" y="107" width="30" height="43" filterUnits="userSpaceOnUse" color-interpolation-filters="sRGB">
<feFlood flood-opacity="0" result="BackgroundImageFix"/>
<feColorMatrix in="SourceAlpha" type="matrix" values="0 0 0 0 0 0 0 0 0 0 0 0 0 0 0 0 0 0 127 0" result="hardAlpha"/>
<feOffset dy="1"/>
<feComposite in2="hardAlpha" operator="out"/>
<feColorMatrix type="matrix" values="0 0 0 0 0 0 0 0 0 0 0 0 0 0 0 0 0 0 0.35 0"/>
<feBlend mode="normal" in2="BackgroundImageFix" result="effect1_dropShadow_208_2449"/>
<feBlend mode="normal" in="SourceGraphic" in2="effect1_dropShadow_208_2449" result="shape"/>
</filter>
<filter id="filter21_d_208_2449" x="236.977" y="107" width="30" height="43" filterUnits="userSpaceOnUse" color-interpolation-filters="sRGB">
<feFlood flood-opacity="0" result="BackgroundImageFix"/>
<feColorMatrix in="SourceAlpha" type="matrix" values="0 0 0 0 0 0 0 0 0 0 0 0 0 0 0 0 0 0 127 0" result="hardAlpha"/>
<feOffset dy="1"/>
<feComposite in2="hardAlpha" operator="out"/>
<feColorMatrix type="matrix" values="0 0 0 0 0 0 0 0 0 0 0 0 0 0 0 0 0 0 0.35 0"/>
<feBlend mode="normal" in2="BackgroundImageFix" result="effect1_dropShadow_208_2449"/>
<feBlend mode="normal" in="SourceGraphic" in2="effect1_dropShadow_208_2449" result="shape"/>
</filter>
<filter id="filter22_d_208_2449" x="272.962" y="107" width="30" height="43" filterUnits="userSpaceOnUse" color-interpolation-filters="sRGB">
<feFlood flood-opacity="0" result="BackgroundImageFix"/>
<feColorMatrix in="SourceAlpha" type="matrix" values="0 0 0 0 0 0 0 0 0 0 0 0 0 0 0 0 0 0 127 0" result="hardAlpha"/>
<feOffset dy="1"/>
<feComposite in2="hardAlpha" operator="out"/>
<feColorMatrix type="matrix" values="0 0 0 0 0 0 0 0 0 0 0 0 0 0 0 0 0 0 0.35 0"/>
<feBlend mode="normal" in2="BackgroundImageFix" result="effect1_dropShadow_208_2449"/>
<feBlend mode="normal" in="SourceGraphic" in2="effect1_dropShadow_208_2449" result="shape"/>
</filter>
<filter id="filter23_d_208_2449" x="308.947" y="107" width="30" height="43" filterUnits="userSpaceOnUse" color-interpolation-filters="sRGB">
<feFlood flood-opacity="0" result="BackgroundImageFix"/>
<feColorMatrix in="SourceAlpha" type="matrix" values="0 0 0 0 0 0 0 0 0 0 0 0 0 0 0 0 0 0 127 0" result="hardAlpha"/>
<feOffset dy="1"/>
<feComposite in2="hardAlpha" operator="out"/>
<feColorMatrix type="matrix" values="0 0 0 0 0 0 0 0 0 0 0 0 0 0 0 0 0 0 0.35 0"/>
<feBlend mode="normal" in2="BackgroundImageFix" result="effect1_dropShadow_208_2449"/>
<feBlend mode="normal" in="SourceGraphic" in2="effect1_dropShadow_208_2449" result="shape"/>
</filter>
<filter id="filter24_d_208_2449" x="2.74805" y="53" width="30" height="43" filterUnits="userSpaceOnUse" color-interpolation-filters="sRGB">
<feFlood flood-opacity="0" result="BackgroundImageFix"/>
<feColorMatrix in="SourceAlpha" type="matrix" values="0 0 0 0 0 0 0 0 0 0 0 0 0 0 0 0 0 0 127 0" result="hardAlpha"/>
<feOffset dy="1"/>
<feComposite in2="hardAlpha" operator="out"/>
<feColorMatrix type="matrix" values="0 0 0 0 0 0 0 0 0 0 0 0 0 0 0 0 0 0 0.35 0"/>
<feBlend mode="normal" in2="BackgroundImageFix" result="effect1_dropShadow_208_2449"/>
<feBlend mode="normal" in="SourceGraphic" in2="effect1_dropShadow_208_2449" result="shape"/>
</filter>
<filter id="filter25_d_208_2449" x="38.7985" y="53" width="30" height="43" filterUnits="userSpaceOnUse" color-interpolation-filters="sRGB">
<feFlood flood-opacity="0" result="BackgroundImageFix"/>
<feColorMatrix in="SourceAlpha" type="matrix" values="0 0 0 0 0 0 0 0 0 0 0 0 0 0 0 0 0 0 127 0" result="hardAlpha"/>
<feOffset dy="1"/>
<feComposite in2="hardAlpha" operator="out"/>
<feColorMatrix type="matrix" values="0 0 0 0 0 0 0 0 0 0 0 0 0 0 0 0 0 0 0.35 0"/>
<feBlend mode="normal" in2="BackgroundImageFix" result="effect1_dropShadow_208_2449"/>
<feBlend mode="normal" in="SourceGraphic" in2="effect1_dropShadow_208_2449" result="shape"/>
</filter>
<filter id="filter26_d_208_2449" x="74.8488" y="53" width="30" height="43" filterUnits="userSpaceOnUse" color-interpolation-filters="sRGB">
<feFlood flood-opacity="0" result="BackgroundImageFix"/>
<feColorMatrix in="SourceAlpha" type="matrix" values="0 0 0 0 0 0 0 0 0 0 0 0 0 0 0 0 0 0 127 0" result="hardAlpha"/>
<feOffset dy="1"/>
<feComposite in2="hardAlpha" operator="out"/>
<feColorMatrix type="matrix" values="0 0 0 0 0 0 0 0 0 0 0 0 0 0 0 0 0 0 0.35 0"/>
<feBlend mode="normal" in2="BackgroundImageFix" result="effect1_dropShadow_208_2449"/>
<feBlend mode="normal" in="SourceGraphic" in2="effect1_dropShadow_208_2449" result="shape"/>
</filter>
<filter id="filter27_d_208_2449" x="110.899" y="53" width="30" height="43" filterUnits="userSpaceOnUse" color-interpolation-filters="sRGB">
<feFlood flood-opacity="0" result="BackgroundImageFix"/>
<feColorMatrix in="SourceAlpha" type="matrix" values="0 0 0 0 0 0 0 0 0 0 0 0 0 0 0 0 0 0 127 0" result="hardAlpha"/>
<feOffset dy="1"/>
<feComposite in2="hardAlpha" operator="out"/>
<feColorMatrix type="matrix" values="0 0 0 0 0 0 0 0 0 0 0 0 0 0 0 0 0 0 0.35 0"/>
<feBlend mode="normal" in2="BackgroundImageFix" result="effect1_dropShadow_208_2449"/>
<feBlend mode="normal" in="SourceGraphic" in2="effect1_dropShadow_208_2449" result="shape"/>
</filter>
<filter id="filter28_d_208_2449" x="146.95" y="53" width="30" height="43" filterUnits="userSpaceOnUse" color-interpolation-filters="sRGB">
<feFlood flood-opacity="0" result="BackgroundImageFix"/>
<feColorMatrix in="SourceAlpha" type="matrix" values="0 0 0 0 0 0 0 0 0 0 0 0 0 0 0 0 0 0 127 0" result="hardAlpha"/>
<feOffset dy="1"/>
<feComposite in2="hardAlpha" operator="out"/>
<feColorMatrix type="matrix" values="0 0 0 0 0 0 0 0 0 0 0 0 0 0 0 0 0 0 0.35 0"/>
<feBlend mode="normal" in2="BackgroundImageFix" result="effect1_dropShadow_208_2449"/>
<feBlend mode="normal" in="SourceGraphic" in2="effect1_dropShadow_208_2449" result="shape"/>
</filter>
<filter id="filter29_d_208_2449" x="183" y="53" width="30" height="43" filterUnits="userSpaceOnUse" color-interpolation-filters="sRGB">
<feFlood flood-opacity="0" result="BackgroundImageFix"/>
<feColorMatrix in="SourceAlpha" type="matrix" values="0 0 0 0 0 0 0 0 0 0 0 0 0 0 0 0 0 0 127 0" result="hardAlpha"/>
<feOffset dy="1"/>
<feComposite in2="hardAlpha" operator="out"/>
<feColorMatrix type="matrix" values="0 0 0 0 0 0 0 0 0 0 0 0 0 0 0 0 0 0 0.35 0"/>
<feBlend mode="normal" in2="BackgroundImageFix" result="effect1_dropShadow_208_2449"/>
<feBlend mode="normal" in="SourceGraphic" in2="effect1_dropShadow_208_2449" result="shape"/>
</filter>
<filter id="filter30_d_208_2449" x="219.05" y="53" width="30" height="43" filterUnits="userSpaceOnUse" color-interpolation-filters="sRGB">
<feFlood flood-opacity="0" result="BackgroundImageFix"/>
<feColorMatrix in="SourceAlpha" type="matrix" values="0 0 0 0 0 0 0 0 0 0 0 0 0 0 0 0 0 0 127 0" result="hardAlpha"/>
<feOffset dy="1"/>
<feComposite in2="hardAlpha" operator="out"/>
<feColorMatrix type="matrix" values="0 0 0 0 0 0 0 0 0 0 0 0 0 0 0 0 0 0 0.35 0"/>
<feBlend mode="normal" in2="BackgroundImageFix" result="effect1_dropShadow_208_2449"/>
<feBlend mode="normal" in="SourceGraphic" in2="effect1_dropShadow_208_2449" result="shape"/>
</filter>
<filter id="filter31_d_208_2449" x="255.101" y="53" width="30" height="43" filterUnits="userSpaceOnUse" color-interpolation-filters="sRGB">
<feFlood flood-opacity="0" result="BackgroundImageFix"/>
<feColorMatrix in="SourceAlpha" type="matrix" values="0 0 0 0 0 0 0 0 0 0 0 0 0 0 0 0 0 0 127 0" result="hardAlpha"/>
<feOffset dy="1"/>
<feComposite in2="hardAlpha" operator="out"/>
<feColorMatrix type="matrix" values="0 0 0 0 0 0 0 0 0 0 0 0 0 0 0 0 0 0 0.35 0"/>
<feBlend mode="normal" in2="BackgroundImageFix" result="effect1_dropShadow_208_2449"/>
<feBlend mode="normal" in="SourceGraphic" in2="effect1_dropShadow_208_2449" result="shape"/>
</filter>
<filter id="filter32_d_208_2449" x="291.151" y="53" width="30" height="43" filterUnits="userSpaceOnUse" color-interpolation-filters="sRGB">
<feFlood flood-opacity="0" result="BackgroundImageFix"/>
<feColorMatrix in="SourceAlpha" type="matrix" values="0 0 0 0 0 0 0 0 0 0 0 0 0 0 0 0 0 0 127 0" result="hardAlpha"/>
<feOffset dy="1"/>
<feComposite in2="hardAlpha" operator="out"/>
<feColorMatrix type="matrix" values="0 0 0 0 0 0 0 0 0 0 0 0 0 0 0 0 0 0 0.35 0"/>
<feBlend mode="normal" in2="BackgroundImageFix" result="effect1_dropShadow_208_2449"/>
<feBlend mode="normal" in="SourceGraphic" in2="effect1_dropShadow_208_2449" result="shape"/>
</filter>
<filter id="filter33_d_208_2449" x="327.201" y="53" width="30" height="43" filterUnits="userSpaceOnUse" color-interpolation-filters="sRGB">
<feFlood flood-opacity="0" result="BackgroundImageFix"/>
<feColorMatrix in="SourceAlpha" type="matrix" values="0 0 0 0 0 0 0 0 0 0 0 0 0 0 0 0 0 0 127 0" result="hardAlpha"/>
<feOffset dy="1"/>
<feComposite in2="hardAlpha" operator="out"/>
<feColorMatrix type="matrix" values="0 0 0 0 0 0 0 0 0 0 0 0 0 0 0 0 0 0 0.35 0"/>
<feBlend mode="normal" in2="BackgroundImageFix" result="effect1_dropShadow_208_2449"/>
<feBlend mode="normal" in="SourceGraphic" in2="effect1_dropShadow_208_2449" result="shape"/>
</filter>
</defs>
</svg>
