<svg width="84" height="18" viewBox="0 0 84 18" fill="none" xmlns="http://www.w3.org/2000/svg">
<path d="M78.8021 13.6932L78.1885 17.3751H75.8362L76.9271 10.8296H79.16L78.9555 12.0739H79.0237C79.2311 11.6563 79.5336 11.331 79.9314 11.0981C80.3319 10.8623 80.7737 10.7444 81.2566 10.7444C81.7197 10.7444 82.1046 10.8495 82.4115 11.0597C82.7183 11.27 82.9356 11.5597 83.0635 11.929C83.1913 12.2984 83.214 12.7217 83.1316 13.1989L82.4328 17.3751H80.0805L80.6941 13.6932C80.7481 13.3694 80.7083 13.1151 80.5748 12.9305C80.4441 12.7458 80.2282 12.6535 79.9271 12.6535C79.7367 12.6535 79.562 12.6961 79.4029 12.7813C79.2467 12.8637 79.116 12.983 79.0109 13.1393C78.9086 13.2927 78.839 13.4773 78.8021 13.6932Z" fill="black"/>
<path d="M71.4556 17.4944C70.7454 17.4944 70.1601 17.3538 69.6999 17.0725C69.2425 16.7884 68.9215 16.3935 68.7368 15.8879C68.5522 15.3793 68.5152 14.7898 68.626 14.1194C68.7368 13.4489 68.9684 12.8609 69.3206 12.3552C69.6729 11.8467 70.126 11.4518 70.68 11.1705C71.234 10.8864 71.8675 10.7444 72.5806 10.7444C73.288 10.7444 73.8704 10.8864 74.3277 11.1705C74.788 11.4518 75.1104 11.8467 75.2951 12.3552C75.4826 12.8609 75.5209 13.4489 75.4101 14.1194C75.2993 14.7898 75.0664 15.3793 74.7113 15.8879C74.3562 16.3935 73.9016 16.7884 73.3476 17.0725C72.7965 17.3538 72.1658 17.4944 71.4556 17.4944ZM71.7454 15.7557C71.9499 15.7557 72.136 15.689 72.3036 15.5555C72.4741 15.4219 72.6189 15.2316 72.7383 14.9844C72.8604 14.7373 72.9499 14.4432 73.0067 14.1023C73.0635 13.7586 73.0721 13.4646 73.0323 13.2202C72.9925 12.9731 72.9101 12.7827 72.7851 12.6492C72.6601 12.5157 72.4954 12.4489 72.2908 12.4489C72.0863 12.4489 71.8988 12.5157 71.7283 12.6492C71.5579 12.7827 71.413 12.9731 71.2937 13.2202C71.1743 13.4646 71.0863 13.7586 71.0295 14.1023C70.9726 14.4432 70.9627 14.7373 70.9996 14.9844C71.0394 15.2316 71.1218 15.4219 71.2468 15.5555C71.3746 15.689 71.5408 15.7557 71.7454 15.7557Z" fill="black"/>
<path d="M64.7683 17.375L65.8592 10.8295H68.2115L67.1206 17.375H64.7683ZM67.1376 10.1477C66.8194 10.1477 66.5623 10.0426 66.3663 9.83239C66.1703 9.61932 66.0979 9.36648 66.149 9.07386C66.2001 8.77557 66.3564 8.52273 66.6177 8.31534C66.8791 8.10511 67.1689 8 67.4871 8C67.8081 8 68.0638 8.10511 68.2541 8.31534C68.4444 8.52273 68.5155 8.77557 68.4672 9.07386C68.4217 9.36648 68.2683 9.61932 68.0069 9.83239C67.7484 10.0426 67.4587 10.1477 67.1376 10.1477Z" fill="black"/>
<path d="M64.8994 10.8297L64.6096 12.5342H60.2971L60.5869 10.8297H64.8994ZM61.6778 9.26147H64.0301L63.0329 15.27C63.0187 15.3609 63.0216 15.4376 63.0414 15.5001C63.0613 15.5598 63.1011 15.6052 63.1608 15.6365C63.2233 15.6649 63.3056 15.6791 63.4079 15.6791C63.4761 15.6791 63.5599 15.6706 63.6593 15.6535C63.7588 15.6336 63.8341 15.6194 63.8852 15.6109L63.9534 17.2643C63.8341 17.2984 63.6735 17.3368 63.4718 17.3794C63.273 17.4248 63.0414 17.4547 62.7772 17.4689C62.2261 17.4944 61.7772 17.4362 61.4306 17.2941C61.0869 17.1521 60.8483 16.9305 60.7147 16.6294C60.5841 16.3254 60.5613 15.9461 60.6466 15.4916L61.6778 9.26147Z" fill="black"/>
<path d="M55.7641 17.4944C55.0539 17.4944 54.4687 17.3538 54.0084 17.0725C53.5482 16.7884 53.2258 16.3935 53.0411 15.8879C52.8564 15.3793 52.8209 14.7898 52.9346 14.1194C53.0425 13.4489 53.2726 12.8609 53.6249 12.3552C53.98 11.8467 54.4346 11.4518 54.9885 11.1705C55.5454 10.8864 56.1789 10.7444 56.8891 10.7444C57.5312 10.7444 58.0667 10.8609 58.4956 11.0938C58.9275 11.3239 59.2357 11.6506 59.4204 12.0739C59.6079 12.4944 59.6562 12.9887 59.5652 13.5569H57.3834C57.409 13.216 57.3536 12.9546 57.2172 12.7728C57.0837 12.591 56.8891 12.5001 56.6334 12.5001C56.4232 12.5001 56.23 12.5597 56.0539 12.679C55.8806 12.7955 55.7314 12.9731 55.6064 13.2117C55.4843 13.4475 55.3948 13.7444 55.338 14.1023C55.2812 14.4603 55.274 14.7586 55.3167 14.9972C55.3621 15.233 55.4502 15.4106 55.5809 15.5299C55.7144 15.6464 55.8834 15.7046 56.088 15.7046C56.2641 15.7046 56.426 15.6648 56.5738 15.5853C56.7243 15.5029 56.8536 15.3836 56.9616 15.2273C57.0723 15.0682 57.1562 14.8751 57.213 14.6478H59.3948C59.2868 15.2273 59.0695 15.7302 58.7428 16.1563C58.4161 16.5825 57.9999 16.912 57.4942 17.145C56.9885 17.3779 56.4118 17.4944 55.7641 17.4944Z" fill="black"/>
<path d="M48.4463 17.4944C47.7474 17.4944 47.1679 17.3609 46.7077 17.0938C46.2474 16.8239 45.9236 16.4376 45.7361 15.9347C45.5486 15.429 45.5145 14.8239 45.6338 14.1194C45.7474 13.4432 45.9818 12.8523 46.3369 12.3467C46.6949 11.841 47.1452 11.4475 47.6878 11.1663C48.2332 10.885 48.844 10.7444 49.5202 10.7444C50.0145 10.7444 50.4477 10.8211 50.8199 10.9745C51.1949 11.1279 51.5003 11.3509 51.7361 11.6435C51.9719 11.9361 52.131 12.2898 52.2134 12.7046C52.2986 13.1165 52.2986 13.5825 52.2134 14.1023L52.1281 14.6478H46.2815L46.4861 13.3523H50.1679C50.1963 13.1648 50.1778 13.0001 50.1125 12.858C50.05 12.7131 49.9492 12.6009 49.8099 12.5214C49.6736 12.439 49.5088 12.3978 49.3156 12.3978C49.1224 12.3978 48.9406 12.439 48.7702 12.5214C48.6026 12.6038 48.4591 12.7188 48.3398 12.8665C48.2233 13.0143 48.1452 13.1876 48.1054 13.3864L47.8497 14.7501C47.8156 14.9603 47.8284 15.1478 47.8881 15.3126C47.9477 15.4773 48.0514 15.6066 48.1992 15.7004C48.3469 15.7941 48.5372 15.841 48.7702 15.841C48.9293 15.841 49.0798 15.8197 49.2219 15.7771C49.3668 15.7316 49.4946 15.6663 49.6054 15.581C49.719 15.493 49.8099 15.3864 49.8781 15.2614H52.0259C51.8724 15.716 51.6295 16.1109 51.2972 16.4461C50.9676 16.7785 50.5614 17.037 50.0784 17.2217C49.5983 17.4035 49.0543 17.4944 48.4463 17.4944Z" fill="black"/>
<path d="M40.5521 13.6932L39.9385 17.3751H37.5862L38.6771 10.8296H40.91L40.7055 12.0739H40.7737C40.9811 11.6563 41.2836 11.331 41.6814 11.0981C42.0819 10.8623 42.5237 10.7444 43.0066 10.7444C43.4697 10.7444 43.8546 10.8495 44.1615 11.0597C44.4683 11.27 44.6856 11.5597 44.8135 11.929C44.9413 12.2984 44.964 12.7217 44.8816 13.1989L44.1828 17.3751H41.8305L42.4441 13.6932C42.4981 13.3694 42.4583 13.1151 42.3248 12.9305C42.1941 12.7458 41.9782 12.6535 41.6771 12.6535C41.4867 12.6535 41.312 12.6961 41.1529 12.7813C40.9967 12.8637 40.866 12.983 40.7609 13.1393C40.6586 13.2927 40.589 13.4773 40.5521 13.6932Z" fill="black"/>
<path d="M32.7943 13.6932L32.1806 17.3751H29.8284L30.9193 10.8296H33.1522L32.9477 12.0739H33.0159C33.2233 11.6563 33.5258 11.331 33.9235 11.0981C34.3241 10.8623 34.7659 10.7444 35.2488 10.7444C35.7119 10.7444 36.0968 10.8495 36.4037 11.0597C36.7105 11.27 36.9278 11.5597 37.0556 11.929C37.1835 12.2984 37.2062 12.7217 37.1238 13.1989L36.425 17.3751H34.0727L34.6863 13.6932C34.7403 13.3694 34.7005 13.1151 34.567 12.9305C34.4363 12.7458 34.2204 12.6535 33.9193 12.6535C33.7289 12.6535 33.5542 12.6961 33.3951 12.7813C33.2389 12.8637 33.1082 12.983 33.0031 13.1393C32.9008 13.2927 32.8312 13.4773 32.7943 13.6932Z" fill="black"/>
<path d="M25.4478 17.4944C24.7375 17.4944 24.1523 17.3538 23.6921 17.0725C23.2347 16.7884 22.9137 16.3935 22.729 15.8879C22.5444 15.3793 22.5074 14.7898 22.6182 14.1194C22.729 13.4489 22.9606 12.8609 23.3128 12.3552C23.6651 11.8467 24.1182 11.4518 24.6722 11.1705C25.2262 10.8864 25.8597 10.7444 26.5728 10.7444C27.2802 10.7444 27.8625 10.8864 28.3199 11.1705C28.7802 11.4518 29.1026 11.8467 29.2873 12.3552C29.4748 12.8609 29.5131 13.4489 29.4023 14.1194C29.2915 14.7898 29.0586 15.3793 28.7035 15.8879C28.3483 16.3935 27.8938 16.7884 27.3398 17.0725C26.7887 17.3538 26.158 17.4944 25.4478 17.4944ZM25.7375 15.7557C25.9421 15.7557 26.1282 15.689 26.2958 15.5555C26.4662 15.4219 26.6111 15.2316 26.7304 14.9844C26.8526 14.7373 26.9421 14.4432 26.9989 14.1023C27.0557 13.7586 27.0643 13.4646 27.0245 13.2202C26.9847 12.9731 26.9023 12.7827 26.7773 12.6492C26.6523 12.5157 26.4875 12.4489 26.283 12.4489C26.0785 12.4489 25.891 12.5157 25.7205 12.6492C25.55 12.7827 25.4052 12.9731 25.2858 13.2202C25.1665 13.4646 25.0785 13.7586 25.0216 14.1023C24.9648 14.4432 24.9549 14.7373 24.9918 14.9844C25.0316 15.2316 25.114 15.4219 25.239 15.5555C25.3668 15.689 25.533 15.7557 25.7375 15.7557Z" fill="black"/>
<path d="M18.1704 17.4944C17.4601 17.4944 16.8749 17.3538 16.4147 17.0725C15.9545 16.7884 15.632 16.3935 15.4473 15.8879C15.2627 15.3793 15.2272 14.7898 15.3408 14.1194C15.4488 13.4489 15.6789 12.8609 16.0312 12.3552C16.3863 11.8467 16.8408 11.4518 17.3948 11.1705C17.9516 10.8864 18.5851 10.7444 19.2954 10.7444C19.9374 10.7444 20.4729 10.8609 20.9019 11.0938C21.3337 11.3239 21.642 11.6506 21.8266 12.0739C22.0141 12.4944 22.0624 12.9887 21.9715 13.5569H19.7897C19.8152 13.216 19.7598 12.9546 19.6235 12.7728C19.49 12.591 19.2954 12.5001 19.0397 12.5001C18.8295 12.5001 18.6363 12.5597 18.4601 12.679C18.2868 12.7955 18.1377 12.9731 18.0127 13.2117C17.8905 13.4475 17.801 13.7444 17.7442 14.1023C17.6874 14.4603 17.6803 14.7586 17.7229 14.9972C17.7684 15.233 17.8564 15.4106 17.9871 15.5299C18.1206 15.6464 18.2897 15.7046 18.4942 15.7046C18.6704 15.7046 18.8323 15.6648 18.98 15.5853C19.1306 15.5029 19.2598 15.3836 19.3678 15.2273C19.4786 15.0682 19.5624 14.8751 19.6192 14.6478H21.801C21.6931 15.2273 21.4758 15.7302 21.1491 16.1563C20.8223 16.5825 20.4062 16.912 19.9005 17.145C19.3948 17.3779 18.8181 17.4944 18.1704 17.4944Z" fill="black"/>
<path d="M33.409 11.8296C33.1363 11.8296 32.882 11.8083 32.6462 11.7657C32.4104 11.7259 32.2045 11.6705 32.0283 11.5995L32.8209 9.92902C33.0028 9.9972 33.1704 10.0412 33.3238 10.0611C33.48 10.081 33.6178 10.0696 33.7371 10.027C33.8564 9.98442 33.9545 9.90345 34.0312 9.78414L34.1079 9.66482L32.9403 2.82959H35.3096L35.6079 7.36368H35.676L37.5084 2.82959H40.0653L36.5028 9.9205C36.3209 10.2813 36.0937 10.6052 35.8209 10.8921C35.551 11.1819 35.2187 11.4106 34.8238 11.5782C34.4289 11.7458 33.9573 11.8296 33.409 11.8296Z" fill="#FF7575"/>
<path d="M32.628 0.647705L31.1792 9.37498H28.8269L30.2758 0.647705H32.628Z" fill="#FF7575"/>
<path d="M25.2761 9.375L26.367 2.82955H28.7193L27.6284 9.375H25.2761ZM27.6454 2.14773C27.3273 2.14773 27.0702 2.04261 26.8741 1.83239C26.6781 1.61932 26.6057 1.36648 26.6568 1.07386C26.7079 0.775568 26.8642 0.522727 27.1256 0.315341C27.3869 0.105114 27.6767 0 27.9949 0C28.3159 0 28.5716 0.105114 28.7619 0.315341C28.9523 0.522727 29.0233 0.775568 28.975 1.07386C28.9295 1.36648 28.7761 1.61932 28.5148 1.83239C28.2562 2.04261 27.9665 2.14773 27.6454 2.14773Z" fill="#FF7575"/>
<path d="M14.0081 9.37507L15.099 2.82961H17.3319L17.1274 4.07393H17.1956C17.3973 3.66484 17.6828 3.34098 18.0521 3.10234C18.4214 2.8637 18.8348 2.74438 19.2921 2.74438C19.7495 2.74438 20.1245 2.86654 20.4171 3.11086C20.7098 3.35234 20.8575 3.67336 20.8603 4.07393H20.9285C21.1046 3.67336 21.393 3.35234 21.7936 3.11086C22.1941 2.86654 22.6387 2.74438 23.1274 2.74438C23.7495 2.74438 24.2225 2.94609 24.5464 3.3495C24.8731 3.75291 24.9796 4.28984 24.866 4.96029L24.1331 9.37507H21.7808L22.4285 5.55688C22.4683 5.26995 22.4285 5.04552 22.3092 4.88359C22.1899 4.71882 22.0081 4.63643 21.7637 4.63643C21.5223 4.63643 21.3177 4.71882 21.1501 4.88359C20.9853 5.04552 20.8831 5.26995 20.8433 5.55688L20.1956 9.37507H17.9456L18.5933 5.55688C18.6331 5.26995 18.5933 5.04552 18.474 4.88359C18.3546 4.71882 18.1728 4.63643 17.9285 4.63643C17.7694 4.63643 17.6245 4.67336 17.4939 4.74723C17.366 4.82109 17.2595 4.92762 17.1742 5.06683C17.0919 5.20319 17.0365 5.36654 17.0081 5.55688L16.3603 9.37507H14.0081Z" fill="#FF7575"/>
<path d="M8.7081 9.47734C8.29332 9.47734 7.93679 9.40916 7.63849 9.27279C7.34304 9.13359 7.12713 8.92336 6.99077 8.64211C6.85724 8.35802 6.82741 8.00007 6.90128 7.56825C6.96094 7.21029 7.07315 6.9049 7.23793 6.65206C7.4027 6.39921 7.60724 6.19183 7.85156 6.0299C8.09588 5.86796 8.37003 5.74439 8.67401 5.65916C8.98082 5.57109 9.30469 5.51427 9.6456 5.4887C10.0149 5.46029 10.3146 5.42478 10.5447 5.38217C10.7749 5.33956 10.9467 5.28132 11.0604 5.20745C11.174 5.13359 11.2422 5.03416 11.2649 4.90916V4.89211C11.2905 4.72166 11.245 4.59098 11.1286 4.50007C11.0149 4.40916 10.8558 4.3637 10.6513 4.3637C10.4297 4.3637 10.2379 4.412 10.076 4.50859C9.9169 4.60518 9.80753 4.75575 9.74787 4.96029H7.5831C7.674 4.56257 7.86008 4.19609 8.14133 3.86086C8.42543 3.52279 8.80185 3.25291 9.2706 3.0512C9.74219 2.84666 10.3047 2.74438 10.9581 2.74438C11.424 2.74438 11.8331 2.79978 12.1854 2.91058C12.5376 3.01853 12.8288 3.17052 13.0589 3.36654C13.2919 3.55973 13.4553 3.787 13.549 4.04836C13.6456 4.30688 13.6683 4.58813 13.6172 4.89211L12.8672 9.37507H10.6683L10.8217 8.45461H10.7706C10.6001 8.69893 10.4084 8.89637 10.1953 9.04694C9.98509 9.19751 9.75497 9.30688 9.50497 9.37507C9.25781 9.44325 8.99219 9.47734 8.7081 9.47734ZM9.73082 7.99438C9.90696 7.99438 10.0803 7.95745 10.2507 7.88359C10.4212 7.80973 10.5675 7.70319 10.6896 7.56399C10.8118 7.42478 10.8899 7.25575 10.924 7.05688L11.0092 6.51143C10.9467 6.537 10.8771 6.56115 10.8004 6.58387C10.7266 6.60376 10.6484 6.62365 10.5661 6.64353C10.4865 6.66342 10.4013 6.68189 10.3104 6.69893C10.2223 6.71598 10.1314 6.73302 10.0376 6.75007C9.85014 6.77848 9.69247 6.82535 9.56463 6.89069C9.43679 6.95319 9.33736 7.03132 9.26633 7.12507C9.19531 7.21598 9.15128 7.31825 9.13423 7.43188C9.10866 7.61086 9.14986 7.75007 9.25781 7.8495C9.36861 7.94609 9.52628 7.99438 9.73082 7.99438Z" fill="#FF7575"/>
<path d="M0 9.37498L1.44886 0.647705H7.58523L7.26136 2.5568H3.49432L3.25568 4.0568H6.64773L6.32386 5.96589H2.93182L2.36932 9.37498H0Z" fill="#FF7575"/>
</svg>
