<svg width="360" height="40" viewBox="0 0 360 40" fill="none" xmlns="http://www.w3.org/2000/svg">
<rect width="360" height="40" fill="white"/>
<mask id="path-1-inside-1_99_703" fill="white">
<path d="M164 0H218V40H164V0Z"/>
</mask>
<path d="M218 38H164V42H218V38Z" fill="black" mask="url(#path-1-inside-1_99_703)"/>
<path d="M181.153 16.866H182.553V17.202C182.553 19.89 181.769 22.592 179.697 23.782L178.647 22.382C180.495 21.304 181.153 19.19 181.153 17.202V16.866ZM181.517 16.866H182.917V17.202C182.917 19.148 183.589 21.122 185.423 22.102L184.415 23.474C182.315 22.382 181.517 19.848 181.517 17.202V16.866ZM179.081 15.466H184.975V16.964H179.081V15.466ZM181.153 13.716H182.917V16.67H181.153V13.716ZM188.349 13.282H190.113V26.246H188.349V13.282ZM186.795 18.252H188.951V19.764H186.795V18.252ZM185.563 13.478H187.299V25.658H185.563V13.478ZM192.07 19.092H193.176C195.85 19.092 197.404 19.064 199.182 18.784L199.364 20.226C197.544 20.534 195.906 20.562 193.176 20.562H192.07V19.092ZM192.07 14.178H198.3V15.648H193.918V19.694H192.07V14.178ZM193.344 16.642H197.922V18.07H193.344V16.642ZM200.26 13.296H202.136V21.122H200.26V13.296ZM197.754 21.318C200.484 21.318 202.192 22.228 202.192 23.782C202.192 25.35 200.484 26.246 197.754 26.246C195.01 26.246 193.316 25.35 193.316 23.782C193.316 22.228 195.01 21.318 197.754 21.318ZM197.754 22.746C196.06 22.746 195.178 23.082 195.178 23.782C195.178 24.496 196.06 24.832 197.754 24.832C199.434 24.832 200.33 24.496 200.33 23.782C200.33 23.082 199.434 22.746 197.754 22.746Z" fill="black"/>
<path d="M236.57 13.996H238.348C238.348 17.23 236.906 19.358 233.448 20.618L232.636 19.33C235.52 18.322 236.57 16.782 236.57 14.668V13.996ZM233.252 13.996H237.116V15.466H233.252V13.996ZM236.626 16.208V17.44L232.944 17.846L232.72 16.404L236.626 16.208ZM241.932 13.282H243.696V19.946H241.932V13.282ZM240.35 15.956H242.422V17.44H240.35V15.956ZM239.104 13.52H240.84V19.862H239.104V13.52ZM234.89 20.422H243.696V23.88H236.752V25.476H234.904V22.564H241.876V21.836H234.89V20.422ZM234.904 24.692H244.116V26.106H234.904V24.692ZM254.025 13.296H255.901V22.844H254.025V13.296ZM247.221 24.538H256.209V26.022H247.221V24.538ZM247.221 22.046H249.083V25.294H247.221V22.046ZM245.793 19.708H246.927C249.629 19.708 251.211 19.638 252.975 19.302L253.171 20.786C251.351 21.136 249.699 21.206 246.927 21.206H245.793V19.708ZM245.779 14.136H251.743V18.28H247.627V20.128H245.793V16.908H249.909V15.62H245.779V14.136ZM258.207 21.626H259.257C261.553 21.626 263.051 21.57 264.731 21.262L264.913 22.76C263.177 23.082 261.623 23.152 259.257 23.152H258.207V21.626ZM258.207 14.43H264.073V15.914H260.069V22.2H258.207V14.43ZM266.621 13.282H268.483V26.288H266.621V13.282ZM263.443 17.748H267.405V19.26H263.443V17.748Z" fill="black" fill-opacity="0.3"/>
<path d="M298.664 23.222H310.396V24.748H298.664V23.222ZM299.56 14.402H309.43V15.886H299.56V14.402ZM299.616 19.764H309.388V21.262H299.616V19.764ZM301.324 15.774H303.186V19.904H301.324V15.774ZM305.818 15.774H307.666V19.904H305.818V15.774ZM311.135 23.306H322.867V24.818H311.135V23.306ZM316.049 20.856H317.911V23.922H316.049V20.856ZM312.451 14.122H321.551V18.434H314.327V20.618H312.479V16.978H319.703V15.592H312.451V14.122ZM312.479 19.876H321.845V21.374H312.479V19.876ZM332.523 13.282H334.399V19.918H332.523V13.282ZM325.621 20.436H334.399V23.936H327.483V25.504H325.649V22.606H332.551V21.864H325.621V20.436ZM325.649 24.72H334.749V26.162H325.649V24.72ZM324.151 14.066H331.137V15.494H324.151V14.066ZM323.997 19.694L323.815 18.224C326.083 18.224 329.107 18.182 331.613 17.874L331.711 19.204C329.149 19.624 326.237 19.68 323.997 19.694ZM325.173 14.71H326.951V18.952H325.173V14.71ZM328.309 14.71H330.115V18.952H328.309V14.71Z" fill="black" fill-opacity="0.3"/>
<path d="M16.2168 25V15.1357H22.5059V16.6191H17.9805V19.5381H22.1162V20.9736H17.9805V25H16.2168ZM25.5158 25.123C25.0464 25.123 24.6249 25.0319 24.2512 24.8496C23.882 24.6673 23.5904 24.4098 23.3762 24.0771C23.1665 23.7399 23.0617 23.3434 23.0617 22.8877V22.874C23.0617 22.432 23.1711 22.0514 23.3899 21.7324C23.6086 21.4089 23.9299 21.1559 24.3537 20.9736C24.7775 20.7913 25.2925 20.6842 25.8986 20.6523L28.6604 20.4814V21.6025L26.1379 21.7666C25.6594 21.7939 25.3062 21.8942 25.0783 22.0674C24.8505 22.2406 24.7365 22.4821 24.7365 22.792V22.8057C24.7365 23.1247 24.8573 23.373 25.0988 23.5508C25.3449 23.7285 25.6571 23.8174 26.0354 23.8174C26.3772 23.8174 26.6825 23.749 26.9514 23.6123C27.2203 23.4756 27.4322 23.291 27.5871 23.0586C27.7421 22.8216 27.8195 22.555 27.8195 22.2588V19.8936C27.8195 19.5199 27.701 19.235 27.4641 19.0391C27.2271 18.8385 26.8762 18.7383 26.4113 18.7383C26.024 18.7383 25.7072 18.8066 25.4611 18.9434C25.215 19.0755 25.0487 19.2646 24.9621 19.5107L24.9553 19.5381H23.3488L23.3557 19.4766C23.4104 19.0573 23.5744 18.6904 23.8479 18.376C24.1213 18.0615 24.4836 17.8177 24.9348 17.6445C25.3859 17.4714 25.9055 17.3848 26.4934 17.3848C27.1405 17.3848 27.6874 17.485 28.134 17.6855C28.5806 17.8815 28.9201 18.1686 29.1525 18.5469C29.385 18.9206 29.5012 19.3695 29.5012 19.8936V25H27.8195V23.9746H27.7033C27.5666 24.2116 27.3889 24.4167 27.1701 24.5898C26.9559 24.763 26.7098 24.8952 26.4318 24.9863C26.1538 25.0775 25.8485 25.123 25.5158 25.123ZM31.1371 25V17.5283H32.8393V18.6904H32.9555C33.115 18.2757 33.3725 17.9544 33.7279 17.7266C34.088 17.4987 34.5141 17.3848 35.0063 17.3848C35.3435 17.3848 35.6466 17.4395 35.9154 17.5488C36.1889 17.6582 36.4236 17.8132 36.6195 18.0137C36.8155 18.2142 36.9659 18.4535 37.0707 18.7314H37.1938C37.3168 18.4626 37.4877 18.2279 37.7065 18.0273C37.9298 17.8223 38.1895 17.665 38.4858 17.5557C38.7865 17.4417 39.1101 17.3848 39.4565 17.3848C39.9578 17.3848 40.3861 17.485 40.7416 17.6855C41.1016 17.8815 41.3774 18.1641 41.5688 18.5332C41.7647 18.9023 41.8627 19.3444 41.8627 19.8594V25H40.1606V20.2764C40.1606 19.9482 40.1104 19.6771 40.0102 19.4629C39.9145 19.2487 39.7664 19.0869 39.5658 18.9775C39.3653 18.8682 39.1124 18.8135 38.807 18.8135C38.5108 18.8135 38.2533 18.8818 38.0346 19.0186C37.8158 19.1507 37.6449 19.3307 37.5219 19.5586C37.4034 19.7865 37.3442 20.0439 37.3442 20.3311V25H35.642V20.1533C35.642 19.8753 35.5873 19.6361 35.4779 19.4355C35.3731 19.235 35.2182 19.0824 35.0131 18.9775C34.8126 18.8682 34.5733 18.8135 34.2953 18.8135C34.0173 18.8135 33.7667 18.8864 33.5434 19.0322C33.3246 19.1735 33.1514 19.3695 33.0238 19.6201C32.9008 19.8662 32.8393 20.1442 32.8393 20.4541V25H31.1371ZM43.4781 25V17.5283H45.1735V25H43.4781ZM44.3326 16.2773C44.0546 16.2773 43.8154 16.1794 43.6149 15.9834C43.4143 15.7874 43.3141 15.5527 43.3141 15.2793C43.3141 14.9967 43.4143 14.7598 43.6149 14.5684C43.8154 14.3724 44.0546 14.2744 44.3326 14.2744C44.6106 14.2744 44.8476 14.3724 45.0436 14.5684C45.2441 14.7598 45.3444 14.9967 45.3444 15.2793C45.3444 15.5527 45.2441 15.7874 45.0436 15.9834C44.8476 16.1794 44.6106 16.2773 44.3326 16.2773ZM46.9325 25V14.6367H48.6346V25H46.9325ZM51.1661 27.625C51.0612 27.625 50.9519 27.6227 50.8379 27.6182C50.7286 27.6136 50.6215 27.6068 50.5166 27.5977V26.292C50.585 26.3011 50.6648 26.3057 50.7559 26.3057C50.847 26.3102 50.9359 26.3125 51.0225 26.3125C51.3734 26.3125 51.6537 26.235 51.8633 26.0801C52.0775 25.9297 52.2302 25.6859 52.3213 25.3486L52.4102 25.0068L49.7373 17.5283H51.5967L53.5655 24.1455L53.1006 23.3662H53.6885L53.2373 24.1455L55.2061 17.5283H56.9971L54.3174 25.1641C54.1032 25.7839 53.8571 26.2738 53.5791 26.6338C53.3011 26.9938 52.9662 27.249 52.5743 27.3994C52.1869 27.5498 51.7175 27.625 51.1661 27.625ZM64.5688 25.1504C63.8169 25.1504 63.1743 24.9954 62.6411 24.6855C62.1079 24.3757 61.7 23.929 61.4174 23.3457C61.1349 22.7624 60.9936 22.0651 60.9936 21.2539V21.2402C60.9936 20.4336 61.1349 19.7432 61.4174 19.1689C61.7 18.5947 62.1079 18.1549 62.6411 17.8496C63.1743 17.5397 63.8146 17.3848 64.562 17.3848C65.2045 17.3848 65.756 17.4964 66.2163 17.7197C66.6811 17.9385 67.048 18.2438 67.3169 18.6357C67.5903 19.0231 67.7589 19.4766 67.8227 19.9961V20.0234H66.2163L66.2094 20.0029C66.132 19.6383 65.9542 19.3398 65.6762 19.1074C65.4028 18.875 65.0336 18.7588 64.5688 18.7588C64.1814 18.7588 63.8488 18.8568 63.5708 19.0527C63.2973 19.2487 63.0877 19.5312 62.9419 19.9004C62.796 20.2695 62.7231 20.7161 62.7231 21.2402V21.2539C62.7231 21.7826 62.796 22.236 62.9419 22.6143C63.0922 22.988 63.3042 23.2751 63.5776 23.4756C63.851 23.6715 64.1814 23.7695 64.5688 23.7695C65.0109 23.7695 65.3663 23.6693 65.6352 23.4688C65.9086 23.2682 66.0978 22.972 66.2026 22.5801L66.2163 22.5527L67.8159 22.5459L67.809 22.6074C67.727 23.1133 67.5493 23.5576 67.2758 23.9404C67.007 24.3232 66.6469 24.6217 66.1958 24.8359C65.7446 25.0456 65.2023 25.1504 64.5688 25.1504ZM72.2614 25.1504C71.5186 25.1504 70.8783 24.9954 70.3405 24.6855C69.8027 24.3711 69.388 23.9245 69.0964 23.3457C68.8092 22.7669 68.6657 22.0742 68.6657 21.2676V21.2539C68.6657 20.4564 68.8115 19.7682 69.1032 19.1895C69.3949 18.6061 69.8073 18.1595 70.3405 17.8496C70.8783 17.5397 71.5186 17.3848 72.2614 17.3848C73.0042 17.3848 73.6423 17.5397 74.1755 17.8496C74.7132 18.1595 75.1279 18.6038 75.4196 19.1826C75.7113 19.7614 75.8571 20.4518 75.8571 21.2539V21.2676C75.8571 22.0742 75.7113 22.7669 75.4196 23.3457C75.1325 23.9245 74.72 24.3711 74.1823 24.6855C73.6491 24.9954 73.0088 25.1504 72.2614 25.1504ZM72.2614 23.7695C72.6533 23.7695 72.986 23.6715 73.2594 23.4756C73.5374 23.2751 73.7493 22.9902 73.8952 22.6211C74.041 22.2474 74.1139 21.7985 74.1139 21.2744V21.2607C74.1139 20.7321 74.041 20.2832 73.8952 19.9141C73.7493 19.5404 73.5374 19.2555 73.2594 19.0596C72.986 18.859 72.6533 18.7588 72.2614 18.7588C71.8695 18.7588 71.5345 18.859 71.2565 19.0596C70.9785 19.2555 70.7666 19.5404 70.6208 19.9141C70.4749 20.2832 70.402 20.7321 70.402 21.2607V21.2744C70.402 21.7985 70.4749 22.2474 70.6208 22.6211C70.7666 22.9948 70.9762 23.2796 71.2497 23.4756C71.5277 23.6715 71.8649 23.7695 72.2614 23.7695ZM77.1581 25V17.5283H78.8602V18.6768H78.9764C79.1542 18.2712 79.4231 17.9544 79.7831 17.7266C80.1431 17.4987 80.592 17.3848 81.1298 17.3848C81.9637 17.3848 82.6018 17.6263 83.0438 18.1094C83.4859 18.5924 83.7069 19.2783 83.7069 20.167V25H82.0048V20.5635C82.0048 19.9801 81.8817 19.5426 81.6356 19.251C81.3941 18.9593 81.0158 18.8135 80.5009 18.8135C80.1636 18.8135 79.8719 18.8887 79.6259 19.0391C79.3798 19.1895 79.1906 19.4014 79.0585 19.6748C78.9263 19.9482 78.8602 20.2718 78.8602 20.6455V25H77.1581ZM85.3087 25V17.5283H87.0108V18.6768H87.127C87.3048 18.2712 87.5736 17.9544 87.9337 17.7266C88.2937 17.4987 88.7426 17.3848 89.2803 17.3848C90.1143 17.3848 90.7524 17.6263 91.1944 18.1094C91.6365 18.5924 91.8575 19.2783 91.8575 20.167V25H90.1553V20.5635C90.1553 19.9801 90.0323 19.5426 89.7862 19.251C89.5447 18.9593 89.1664 18.8135 88.6514 18.8135C88.3142 18.8135 88.0225 18.8887 87.7764 19.0391C87.5303 19.1895 87.3412 19.4014 87.2091 19.6748C87.0769 19.9482 87.0108 20.2718 87.0108 20.6455V25H85.3087ZM96.6585 25.1504C95.9156 25.1504 95.2776 24.9932 94.7444 24.6787C94.2158 24.3643 93.8079 23.9176 93.5208 23.3389C93.2337 22.7601 93.0901 22.0742 93.0901 21.2812V21.2744C93.0901 20.4906 93.2314 19.807 93.514 19.2236C93.8011 18.6403 94.2067 18.1891 94.7308 17.8701C95.2548 17.5465 95.8701 17.3848 96.5765 17.3848C97.2874 17.3848 97.8981 17.542 98.4085 17.8564C98.9235 18.1663 99.3199 18.6016 99.5979 19.1621C99.8759 19.7227 100.015 20.3789 100.015 21.1309V21.6914H93.9446V20.5498H99.1809L98.3743 21.6162V20.9395C98.3743 20.4427 98.2991 20.0303 98.1487 19.7021C97.9983 19.374 97.7887 19.1279 97.5198 18.9639C97.2555 18.7998 96.9479 18.7178 96.597 18.7178C96.2461 18.7178 95.9339 18.8044 95.6604 18.9775C95.3916 19.1462 95.1774 19.3968 95.0179 19.7295C94.8629 20.0576 94.7854 20.4609 94.7854 20.9395V21.623C94.7854 22.0833 94.8629 22.4775 95.0179 22.8057C95.1728 23.1292 95.3916 23.3799 95.6741 23.5576C95.9612 23.7308 96.3007 23.8174 96.6927 23.8174C96.998 23.8174 97.26 23.7741 97.4788 23.6875C97.7021 23.5964 97.8821 23.4893 98.0188 23.3662C98.1556 23.2386 98.2513 23.1178 98.3059 23.0039L98.3265 22.9561H99.9397L99.9261 23.0176C99.8668 23.2591 99.7574 23.5052 99.5979 23.7559C99.443 24.002 99.2311 24.2321 98.9622 24.4463C98.6979 24.6559 98.3743 24.8268 97.9915 24.959C97.6087 25.0866 97.1643 25.1504 96.6585 25.1504ZM104.515 25.1504C103.763 25.1504 103.121 24.9954 102.587 24.6855C102.054 24.3757 101.646 23.929 101.364 23.3457C101.081 22.7624 100.94 22.0651 100.94 21.2539V21.2402C100.94 20.4336 101.081 19.7432 101.364 19.1689C101.646 18.5947 102.054 18.1549 102.587 17.8496C103.121 17.5397 103.761 17.3848 104.508 17.3848C105.151 17.3848 105.702 17.4964 106.163 17.7197C106.627 17.9385 106.994 18.2438 107.263 18.6357C107.537 19.0231 107.705 19.4766 107.769 19.9961V20.0234H106.163L106.156 20.0029C106.078 19.6383 105.901 19.3398 105.623 19.1074C105.349 18.875 104.98 18.7588 104.515 18.7588C104.128 18.7588 103.795 18.8568 103.517 19.0527C103.244 19.2487 103.034 19.5312 102.888 19.9004C102.742 20.2695 102.669 20.7161 102.669 21.2402V21.2539C102.669 21.7826 102.742 22.236 102.888 22.6143C103.039 22.988 103.25 23.2751 103.524 23.4756C103.797 23.6715 104.128 23.7695 104.515 23.7695C104.957 23.7695 105.313 23.6693 105.582 23.4688C105.855 23.2682 106.044 22.972 106.149 22.5801L106.163 22.5527L107.762 22.5459L107.755 22.6074C107.673 23.1133 107.496 23.5576 107.222 23.9404C106.953 24.3232 106.593 24.6217 106.142 24.8359C105.691 25.0456 105.149 25.1504 104.515 25.1504ZM112.016 25.0342C111.16 25.0342 110.542 24.877 110.164 24.5625C109.786 24.248 109.596 23.7331 109.596 23.0176V18.8477H108.434V17.5283H109.596V15.6963H111.326V17.5283H112.898V18.8477H111.326V22.6143C111.326 22.9834 111.403 23.2546 111.558 23.4277C111.718 23.5964 111.973 23.6807 112.324 23.6807C112.447 23.6807 112.547 23.6784 112.625 23.6738C112.707 23.6647 112.798 23.6556 112.898 23.6465V24.959C112.78 24.9818 112.643 25 112.488 25.0137C112.338 25.0273 112.18 25.0342 112.016 25.0342ZM114.213 25V17.5283H115.908V25H114.213ZM115.067 16.2773C114.789 16.2773 114.55 16.1794 114.35 15.9834C114.149 15.7874 114.049 15.5527 114.049 15.2793C114.049 14.9967 114.149 14.7598 114.35 14.5684C114.55 14.3724 114.789 14.2744 115.067 14.2744C115.345 14.2744 115.582 14.3724 115.778 14.5684C115.979 14.7598 116.079 14.9967 116.079 15.2793C116.079 15.5527 115.979 15.7874 115.778 15.9834C115.582 16.1794 115.345 16.2773 115.067 16.2773ZM120.825 25.1504C120.082 25.1504 119.442 24.9954 118.904 24.6855C118.367 24.3711 117.952 23.9245 117.66 23.3457C117.373 22.7669 117.23 22.0742 117.23 21.2676V21.2539C117.23 20.4564 117.375 19.7682 117.667 19.1895C117.959 18.6061 118.371 18.1595 118.904 17.8496C119.442 17.5397 120.082 17.3848 120.825 17.3848C121.568 17.3848 122.206 17.5397 122.739 17.8496C123.277 18.1595 123.692 18.6038 123.984 19.1826C124.275 19.7614 124.421 20.4518 124.421 21.2539V21.2676C124.421 22.0742 124.275 22.7669 123.984 23.3457C123.696 23.9245 123.284 24.3711 122.746 24.6855C122.213 24.9954 121.573 25.1504 120.825 25.1504ZM120.825 23.7695C121.217 23.7695 121.55 23.6715 121.823 23.4756C122.101 23.2751 122.313 22.9902 122.459 22.6211C122.605 22.2474 122.678 21.7985 122.678 21.2744V21.2607C122.678 20.7321 122.605 20.2832 122.459 19.9141C122.313 19.5404 122.101 19.2555 121.823 19.0596C121.55 18.859 121.217 18.7588 120.825 18.7588C120.433 18.7588 120.098 18.859 119.82 19.0596C119.542 19.2555 119.331 19.5404 119.185 19.9141C119.039 20.2832 118.966 20.7321 118.966 21.2607V21.2744C118.966 21.7985 119.039 22.2474 119.185 22.6211C119.331 22.9948 119.54 23.2796 119.814 23.4756C120.092 23.6715 120.429 23.7695 120.825 23.7695ZM125.722 25V17.5283H127.424V18.6768H127.54C127.718 18.2712 127.987 17.9544 128.347 17.7266C128.707 17.4987 129.156 17.3848 129.694 17.3848C130.528 17.3848 131.166 17.6263 131.608 18.1094C132.05 18.5924 132.271 19.2783 132.271 20.167V25H130.569V20.5635C130.569 19.9801 130.446 19.5426 130.2 19.251C129.958 18.9593 129.58 18.8135 129.065 18.8135C128.728 18.8135 128.436 18.8887 128.19 19.0391C127.944 19.1895 127.755 19.4014 127.622 19.6748C127.49 19.9482 127.424 20.2718 127.424 20.6455V25H125.722Z" fill="black"/>
</svg>
