<svg width="360" height="47" viewBox="0 0 360 47" fill="none" xmlns="http://www.w3.org/2000/svg">
<g clip-path="url(#clip0_99_606)">
<rect width="360" height="47" fill="white"/>
<path d="M36.8786 19.7231C39.4352 19.7231 41.6599 21.541 41.6599 25.8574V25.874C41.6599 29.9082 39.842 32.2988 36.8288 32.2988C34.6291 32.2988 32.9855 30.9956 32.6037 29.1611L32.5871 29.0698H34.6955L34.7204 29.1528C35.0358 29.9912 35.7746 30.5391 36.8288 30.5391C38.7297 30.5391 39.5349 28.6797 39.6262 26.3887C39.6262 26.2974 39.6345 26.2061 39.6345 26.1147H39.4684C39.0285 27.061 37.9826 27.8994 36.3391 27.8994C34.0397 27.8994 32.4294 26.2227 32.4294 23.9482V23.9316C32.4294 21.4995 34.2805 19.7231 36.8786 19.7231ZM36.8703 26.2559C38.2233 26.2559 39.2609 25.2764 39.2609 23.9233V23.9067C39.2609 22.5371 38.2233 21.4663 36.8952 21.4663C35.5754 21.4663 34.5212 22.5205 34.5212 23.8569V23.8735C34.5212 25.2598 35.509 26.2559 36.8703 26.2559ZM45.0204 24.2388C44.265 24.2388 43.7006 23.6577 43.7006 22.9272C43.7006 22.1885 44.265 21.6157 45.0204 21.6157C45.7841 21.6157 46.3402 22.1885 46.3402 22.9272C46.3402 23.6577 45.7841 24.2388 45.0204 24.2388ZM45.0204 30.3979C44.265 30.3979 43.7006 29.8252 43.7006 29.0864C43.7006 28.3477 44.265 27.7749 45.0204 27.7749C45.7841 27.7749 46.3402 28.3477 46.3402 29.0864C46.3402 29.8252 45.7841 30.3979 45.0204 30.3979ZM54.1915 32V29.7007H48.3312V27.9492C49.8834 25.2515 51.5851 22.4956 53.212 20.022H56.2418V27.9326H57.8522V29.7007H56.2418V32H54.1915ZM50.3233 27.9824H54.2247V21.7319H54.1002C52.8717 23.6079 51.4855 25.8242 50.3233 27.8579V27.9824ZM62.408 32V22.1304H62.2669L59.2869 24.2388V22.2217L62.4163 20.022H64.5496V32H62.408Z" fill="black"/>
<path opacity="0.35" d="M311.5 23C311.5 21.067 313.067 19.5 315 19.5H332C333.933 19.5 335.5 21.067 335.5 23V28C335.5 29.933 333.933 31.5 332 31.5H315C313.067 31.5 311.5 29.933 311.5 28V23Z" stroke="black"/>
<path opacity="0.4" d="M337 24V28.2203C337.849 27.8629 338.401 27.0314 338.401 26.1102C338.401 25.1889 337.849 24.3574 337 24Z" fill="black"/>
<path d="M313 23C313 21.8954 313.895 21 315 21H332C333.105 21 334 21.8954 334 23V28C334 29.1046 333.105 30 332 30H315C313.895 30 313 29.1046 313 28V23Z" fill="black"/>
<path fill-rule="evenodd" clip-rule="evenodd" d="M295.5 22.5875C297.967 22.5876 300.339 23.5551 302.127 25.2898C302.261 25.4237 302.477 25.4221 302.609 25.286L303.896 23.9605C303.963 23.8915 304.001 23.798 304 23.7008C303.999 23.6035 303.961 23.5105 303.893 23.4423C299.201 18.8526 291.799 18.8526 287.107 23.4423C287.039 23.5105 287.001 23.6034 287 23.7007C286.999 23.7979 287.037 23.8914 287.104 23.9605L288.391 25.286C288.523 25.4223 288.739 25.424 288.873 25.2898C290.661 23.5549 293.034 22.5875 295.5 22.5875ZM295.536 26.5894C296.891 26.5893 298.198 27.1035 299.203 28.032C299.338 28.1638 299.552 28.1609 299.685 28.0255L300.97 26.7C301.038 26.6304 301.075 26.5361 301.074 26.4381C301.073 26.3401 301.034 26.2466 300.965 26.1784C297.906 23.2739 293.169 23.2739 290.109 26.1784C290.04 26.2466 290.001 26.3401 290 26.4382C289.999 26.5362 290.037 26.6305 290.105 26.7L291.39 28.0255C291.522 28.1609 291.736 28.1638 291.872 28.032C292.876 27.1041 294.182 26.5899 295.536 26.5894ZM298.15 29.1767C298.152 29.275 298.114 29.3698 298.045 29.4386L295.822 31.7289C295.756 31.7962 295.668 31.834 295.575 31.834C295.482 31.834 295.393 31.7962 295.328 31.7289L293.105 29.4386C293.036 29.3697 292.998 29.2749 293 29.1766C293.002 29.0783 293.044 28.9853 293.115 28.9194C294.535 27.6935 296.615 27.6935 298.035 28.9194C298.106 28.9853 298.148 29.0784 298.15 29.1767Z" fill="black"/>
<path d="M271 23C271 22.4477 271.448 22 272 22H273C273.552 22 274 22.4477 274 23V31C274 31.5523 273.552 32 273 32H272C271.448 32 271 31.5523 271 31V23Z" fill="black"/>
<path d="M276 21C276 20.4477 276.448 20 277 20H278C278.552 20 279 20.4477 279 21V31C279 31.5523 278.552 32 278 32H277C276.448 32 276 31.5523 276 31V21Z" fill="black"/>
<path d="M266 26.5C266 25.9477 266.448 25.5 267 25.5H268C268.552 25.5 269 25.9477 269 26.5V31C269 31.5523 268.552 32 268 32H267C266.448 32 266 31.5523 266 31V26.5Z" fill="black"/>
<path d="M261 29C261 28.4477 261.448 28 262 28H263C263.552 28 264 28.4477 264 29V31C264 31.5523 263.552 32 263 32H262C261.448 32 261 31.5523 261 31V29Z" fill="black"/>
</g>
<defs>
<clipPath id="clip0_99_606">
<rect width="360" height="47" fill="white"/>
</clipPath>
</defs>
</svg>
